<svg xmlns="http://www.w3.org/2000/svg" viewBox="0 0 400 400">
  <!-- Background walls -->
  <rect width="400" height="400" fill="#FFF8E7"/>
  
  <!-- Counter/Table -->
  <rect y="250" width="400" height="150" fill="#C19A6B"/>
  
  <!-- Window -->
  <rect x="250" y="50" width="120" height="80" fill="#B8E6F7"/>
  <line x1="310" y1="50" x2="310" y2="130" stroke="#8B4513" stroke-width="3"/>
  
  <!-- Vegetables -->
  <!-- Carrots -->
  <ellipse cx="100" cy="300" rx="8" ry="25" fill="#FF8A65"/>
  <ellipse cx="100" cy="275" rx="5" ry="10" fill="#66BB6A"/>
  <ellipse cx="120" cy="305" rx="6" ry="20" fill="#FF8A65"/>
  <ellipse cx="120" cy="285" rx="4" ry="8" fill="#66BB6A"/>
  
  <!-- Tomatoes -->
  <circle cx="160" cy="290" r="12" fill="#E63946"/>
  <circle cx="180" cy="295" r="10" fill="#E63946"/>
  
  <!-- Broccoli -->
  <circle cx="220" cy="285" r="15" fill="#66BB6A"/>
  <circle cx="210" cy="275" r="8" fill="#66BB6A"/>
  <circle cx="230" cy="275" r="8" fill="#66BB6A"/>
  
  <!-- Corn -->
  <ellipse cx="270" cy="295" rx="8" ry="20" fill="#FFD966"/>
  <line x1="270" y1="275" x2="270" y2="315" stroke="#66BB6A" stroke-width="2"/>
  
  <!-- Peppers -->
  <ellipse cx="320" cy="290" rx="10" ry="15" fill="#E63946"/>
  <ellipse cx="340" cy="295" rx="8" ry="12" fill="#FFD966"/>
  
  <!-- Lettuce -->
  <ellipse cx="50" cy="310" rx="20" ry="10" fill="#A5D6A7"/>
  <ellipse cx="70" cy="305" rx="15" ry="8" fill="#A5D6A7"/>
  
  <!-- Grandpa in background -->
  <circle cx="350" cy="200" r="15" fill="#FFD2C2"/>
  <ellipse cx="350" cy="220" rx="12" ry="20" fill="#E07A6A"/>
</svg>
