<svg viewBox="0 0 400 400" xmlns="http://www.w3.org/2000/svg">
  <!-- Background: Playroom -->
  <rect width="400" height="400" fill="#FFF8E1"/>
  <!-- Carpet -->
  <rect x="0" y="300" width="400" height="100" fill="#FCE4EC"/>
  <!-- Window -->
  <rect x="300" y="50" width="80" height="60" fill="#87CEEB"/>
  <!-- Toys scattered -->
  <!-- Red ball -->
  <circle cx="100" cy="350" r="15" fill="#F44336"/>
  <!-- Colorful blocks -->
  <rect x="150" y="340" width="20" height="20" fill="#4CAF50"/>
  <rect x="175" y="340" width="20" height="20" fill="#2196F3"/>
  <!-- Jump rope -->
  <ellipse cx="230" cy="345" rx="20" ry="5" fill="#FF5722"/>
  <!-- Small car -->
  <rect x="280" y="340" width="25" height="15" fill="#FFC107"/>
  <!-- Peppa -->
  <!-- Body -->
  <ellipse cx="120" cy="250" rx="25" ry="35" fill="#E63946"/>
  <!-- Head -->
  <circle cx="120" cy="200" r="30" fill="#F9C6CF"/>
  <!-- Snout -->
  <ellipse cx="120" cy="210" rx="8" ry="5" fill="#FF69B4"/>
  <!-- Eyes bright -->
  <circle cx="110" cy="190" r="4" fill="#000"/>
  <circle cx="130" cy="190" r="4" fill="#000"/>
  <!-- Mouth open -->
  <ellipse cx="120" cy="220" rx="5" ry="3" fill="#000"/>
  <!-- Arms outstretched -->
  <ellipse cx="100" cy="230" rx="8" ry="15" fill="#F9C6CF" transform="rotate(-45 100 230)"/>
  <ellipse cx="140" cy="230" rx="8" ry="15" fill="#F9C6CF" transform="rotate(45 140 230)"/>
  <!-- Legs -->
  <ellipse cx="110" cy="290" rx="8" ry="20" fill="#F9C6CF"/>
  <ellipse cx="130" cy="290" rx="8" ry="20" fill="#F9C6CF"/>
  <!-- Suzy Sheep -->
  <!-- Body -->
  <ellipse cx="280" cy="260" rx="20" ry="30" fill="#FFFFFF"/>
  <!-- Head -->
  <circle cx="280" cy="210" r="25" fill="#FFFFFF"/>
  <!-- Snout -->
  <ellipse cx="280" cy="220" rx="6" ry="4" fill="#FF69B4"/>
  <!-- Eyes -->
  <circle cx="270" cy="200" r="3" fill="#000"/>
  <circle cx="290" cy="200" r="3" fill="#000"/>
  <!-- Smile -->
  <path d="M270 225 Q280 235 290 225" stroke="#000" stroke-width="2" fill="none"/>
  <!-- Arms -->
  <ellipse cx="260" cy="250" rx="6" ry="12" fill="#FFFFFF"/>
  <ellipse cx="300" cy="250" rx="6" ry="12" fill="#FFFFFF"/>
  <!-- Legs -->
  <ellipse cx="270" cy="300" rx="6" ry="15" fill="#FFFFFF"/>
  <ellipse cx="290" cy="300" rx="6" ry="15" fill="#FFFFFF"/>
  <!-- Danny Dog -->
  <!-- Body -->
  <ellipse cx="350" cy="270" rx="20" ry="30" fill="#FFB74D"/>
  <!-- Head -->
  <circle cx="350" cy="220" r="25" fill="#FFB74D"/>
  <!-- Snout -->
  <ellipse cx="350" cy="230" rx="6" ry="4" fill="#FF69B4"/>
  <!-- Eyes -->
  <circle cx="340" cy="210" r="3" fill="#000"/>
  <circle cx="360" cy="210" r="3" fill="#000"/>
  <!-- Smile -->
  <path d="M340 235 Q350 245 360 235" stroke="#000" stroke-width="2" fill="none"/>
  <!-- Arms -->
  <ellipse cx="330" cy="260" rx="6" ry="12" fill="#FFB74D"/>
  <ellipse cx="370" cy="260" rx="6" ry="12" fill="#FFB74D"/>
  <!-- Legs -->
  <ellipse cx="340" cy="310" rx="6" ry="15" fill="#FFB74D"/>
  <ellipse cx="360" cy="310" rx="6" ry="15" fill="#FFB74D"/>
  <!-- Signature -->
  <text x="390" y="390" text-anchor="end" font-family="Arial, sans-serif" font-size="12" fill="#5B6470" opacity="0.85">Grok</text>
</svg>