<svg xmlns="http://www.w3.org/2000/svg" viewBox="0 0 400 400" width="400" height="400">
  <defs>
    <linearGradient id="sky" x1="0" y1="0" x2="0" y2="1">
      <stop offset="0" stop-color="#90A4AE"/>
      <stop offset="1" stop-color="#C7D2D9"/>
    </linearGradient>
  </defs>

  <rect width="400" height="400" fill="url(#sky)"/>

  <g fill="#546E7A" opacity="0.85">
    <g transform="translate(120 95)">
      <circle cx="0" cy="0" r="28"/>
      <circle cx="28" cy="-6" r="34"/>
      <circle cx="62" cy="0" r="28"/>
      <circle cx="30" cy="14" r="24"/>
    </g>
    <g transform="translate(285 110)">
      <circle cx="0" cy="0" r="22"/>
      <circle cx="22" cy="-5" r="26"/>
      <circle cx="48" cy="0" r="22"/>
      <circle cx="24" cy="10" r="18"/>
    </g>
  </g>

  <g stroke="#64B5F6" stroke-width="2.5" stroke-linecap="round" opacity="0.85">
    <line x1="30" y1="150" x2="38" y2="190"/>
    <line x1="66" y1="150" x2="74" y2="190"/>
    <line x1="102" y1="150" x2="110" y2="190"/>
    <line x1="138" y1="150" x2="146" y2="190"/>
    <line x1="174" y1="150" x2="182" y2="190"/>
    <line x1="210" y1="150" x2="218" y2="190"/>
    <line x1="246" y1="150" x2="254" y2="190"/>
    <line x1="282" y1="150" x2="290" y2="190"/>
    <line x1="318" y1="150" x2="326" y2="190"/>
    <line x1="354" y1="150" x2="362" y2="190"/>
    <line x1="30" y1="176" x2="38" y2="216"/>
    <line x1="66" y1="176" x2="74" y2="216"/>
    <line x1="102" y1="176" x2="110" y2="216"/>
    <line x1="138" y1="176" x2="146" y2="216"/>
    <line x1="174" y1="176" x2="182" y2="216"/>
    <line x1="210" y1="176" x2="218" y2="216"/>
    <line x1="246" y1="176" x2="254" y2="216"/>
    <line x1="282" y1="176" x2="290" y2="216"/>
    <line x1="318" y1="176" x2="326" y2="216"/>
    <line x1="354" y1="176" x2="362" y2="216"/>
    <line x1="30" y1="202" x2="38" y2="242"/>
    <line x1="66" y1="202" x2="74" y2="242"/>
    <line x1="102" y1="202" x2="110" y2="242"/>
    <line x1="138" y1="202" x2="146" y2="242"/>
    <line x1="174" y1="202" x2="182" y2="242"/>
    <line x1="210" y1="202" x2="218" y2="242"/>
    <line x1="246" y1="202" x2="254" y2="242"/>
    <line x1="282" y1="202" x2="290" y2="242"/>
    <line x1="318" y1="202" x2="326" y2="242"/>
    <line x1="354" y1="202" x2="362" y2="242"/>
    <line x1="30" y1="228" x2="38" y2="268"/>
    <line x1="66" y1="228" x2="74" y2="268"/>
    <line x1="102" y1="228" x2="110" y2="268"/>
    <line x1="138" y1="228" x2="146" y2="268"/>
    <line x1="174" y1="228" x2="182" y2="268"/>
    <line x1="210" y1="228" x2="218" y2="268"/>
    <line x1="246" y1="228" x2="254" y2="268"/>
    <line x1="282" y1="228" x2="290" y2="268"/>
    <line x1="318" y1="228" x2="326" y2="268"/>
    <line x1="354" y1="228" x2="362" y2="268"/>
    <line x1="30" y1="254" x2="38" y2="294"/>
    <line x1="66" y1="254" x2="74" y2="294"/>
    <line x1="102" y1="254" x2="110" y2="294"/>
    <line x1="138" y1="254" x2="146" y2="294"/>
    <line x1="174" y1="254" x2="182" y2="294"/>
    <line x1="210" y1="254" x2="218" y2="294"/>
    <line x1="246" y1="254" x2="254" y2="294"/>
    <line x1="282" y1="254" x2="290" y2="294"/>
    <line x1="318" y1="254" x2="326" y2="294"/>
    <line x1="354" y1="254" x2="362" y2="294"/>
    <line x1="30" y1="280" x2="38" y2="320"/>
    <line x1="66" y1="280" x2="74" y2="320"/>
    <line x1="102" y1="280" x2="110" y2="320"/>
    <line x1="138" y1="280" x2="146" y2="320"/>
    <line x1="174" y1="280" x2="182" y2="320"/>
    <line x1="210" y1="280" x2="218" y2="320"/>
    <line x1="246" y1="280" x2="254" y2="320"/>
    <line x1="282" y1="280" x2="290" y2="320"/>
    <line x1="318" y1="280" x2="326" y2="320"/>
    <line x1="354" y1="280" x2="362" y2="320"/>
    <line x1="30" y1="306" x2="38" y2="346"/>
    <line x1="66" y1="306" x2="74" y2="346"/>
    <line x1="102" y1="306" x2="110" y2="346"/>
    <line x1="138" y1="306" x2="146" y2="346"/>
    <line x1="174" y1="306" x2="182" y2="346"/>
    <line x1="210" y1="306" x2="218" y2="346"/>
    <line x1="246" y1="306" x2="254" y2="346"/>
    <line x1="282" y1="306" x2="290" y2="346"/>
    <line x1="318" y1="306" x2="326" y2="346"/>
    <line x1="354" y1="306" x2="362" y2="346"/>
  </g>

  <path d="M 0 305 Q 200 270 400 308 L 400 400 L 0 400 Z" fill="#7BC043"/>

  <g transform="translate(190 352)">
    <ellipse cx="0" cy="30" rx="58" ry="16" fill="#6D4C41" opacity="0.55"/>
    <ellipse cx="0" cy="30" rx="52" ry="13" fill="none" stroke="#64B5F6" stroke-width="2" opacity="0.35"/>
    <ellipse cx="0" cy="30" rx="42" ry="10" fill="none" stroke="#64B5F6" stroke-width="2" opacity="0.25"/>
    <ellipse cx="0" cy="30" rx="32" ry="7" fill="none" stroke="#64B5F6" stroke-width="2" opacity="0.2"/>
  </g>

  <!-- Peppa with umbrella -->
  <g transform="translate(175 300)">
    <g transform="translate(10 -120)">
      <path d="M -70 -18 Q 0 -86 70 -18 L 58 10 L -58 10 Z" fill="#FFEB3B" stroke="#333" stroke-width="2"/>
      <path d="M -62 -10 Q 0 -74 62 -10" stroke="#2196F3" stroke-width="4" fill="none" opacity="0.95"/>
      <path d="M -54 -2 Q 0 -64 54 -2" stroke="#2196F3" stroke-width="4" fill="none" opacity="0.95"/>
      <rect x="-3" y="10" width="6" height="74" rx="3" fill="#8D6E63"/>
      <path d="M 0 82 Q 0 98 14 98" stroke="#8D6E63" stroke-width="6" fill="none" stroke-linecap="round"/>
    </g>

    <ellipse cx="0" cy="58" rx="50" ry="56" fill="#E63946"/>
    <rect x="-26" y="100" width="12" height="46" rx="6" fill="#F9C6CF"/>
    <rect x="14" y="100" width="12" height="46" rx="6" fill="#F9C6CF"/>
    <ellipse cx="-20" cy="150" rx="16" ry="10" fill="#E63946"/>
    <ellipse cx="20" cy="150" rx="16" ry="10" fill="#E63946"/>

    <path d="M -44 60 Q -58 18 -46 -10" stroke="#F9C6CF" stroke-width="14" stroke-linecap="round" fill="none"/>
    <circle cx="-46" cy="-10" r="8" fill="#F9C6CF"/>

    <ellipse cx="0" cy="-10" rx="56" ry="42" fill="#F9C6CF"/>
    <ellipse cx="50" cy="-10" rx="20" ry="15" fill="#F9C6CF"/>
    <circle cx="58" cy="-14" r="4" fill="#FF69B4"/>
    <circle cx="58" cy="-6" r="4" fill="#FF69B4"/>
    <ellipse cx="-18" cy="-44" rx="11" ry="19" fill="#F9C6CF"/>
    <ellipse cx="18" cy="-44" rx="11" ry="19" fill="#F9C6CF"/>

    <ellipse cx="-12" cy="-18" rx="7" ry="9" fill="#FFFFFF"/>
    <ellipse cx="15" cy="-18" rx="7" ry="9" fill="#FFFFFF"/>
    <circle cx="-10" cy="-22" r="3.2" fill="#333"/>
    <circle cx="17" cy="-22" r="3.2" fill="#333"/>
    <path d="M 2 2 Q 14 10 26 2" stroke="#333" stroke-width="3" fill="none" stroke-linecap="round"/>
    <circle cx="-22" cy="6" r="10" fill="#FFB6C1" opacity="0.55"/>
    <circle cx="30" cy="6" r="10" fill="#FFB6C1" opacity="0.55"/>
  </g>

  <!-- George behind/right with Mr. Dinosaur -->
  <g transform="translate(290 318) scale(0.92)">
    <ellipse cx="0" cy="34" rx="30" ry="36" fill="#6B9BD2"/>
    <rect x="-14" y="62" width="9" height="38" rx="4" fill="#F9C6CF"/>
    <rect x="6" y="62" width="9" height="38" rx="4" fill="#F9C6CF"/>
    <ellipse cx="-16" cy="104" rx="12" ry="7" fill="#333"/>
    <ellipse cx="16" cy="104" rx="12" ry="7" fill="#333"/>

    <ellipse cx="0" cy="-10" rx="34" ry="28" fill="#F9C6CF"/>
    <ellipse cx="26" cy="-10" rx="12" ry="10" fill="#F9C6CF"/>
    <circle cx="29" cy="-13" r="2.6" fill="#FF69B4"/>
    <circle cx="29" cy="-7" r="2.6" fill="#FF69B4"/>
    <ellipse cx="-12" cy="-36" rx="7" ry="13" fill="#F9C6CF"/>
    <ellipse cx="12" cy="-36" rx="7" ry="13" fill="#F9C6CF"/>

    <ellipse cx="-6" cy="-14" rx="6" ry="7" fill="#FFFFFF"/>
    <ellipse cx="10" cy="-14" rx="6" ry="7" fill="#FFFFFF"/>
    <circle cx="-5" cy="-13" r="2.6" fill="#333"/>
    <circle cx="11" cy="-13" r="2.6" fill="#333"/>
    <path d="M -2 -2 Q 3 2 8 -2" stroke="#333" stroke-width="2" fill="none" stroke-linecap="round"/>

    <g transform="translate(28 26)">
      <ellipse cx="0" cy="0" rx="12" ry="16" fill="#4CAF50"/>
      <ellipse cx="0" cy="-10" rx="8" ry="9" fill="#66BB6A"/>
      <path d="M -7 -16 L 0 -26 L 7 -16" fill="#2E7D32"/>
      <circle cx="-3" cy="-12" r="1.7" fill="#333"/>
      <circle cx="3" cy="-12" r="1.7" fill="#333"/>
    </g>
  </g>

  <text x="390" y="390" text-anchor="end" font-family="Arial, sans-serif" font-size="12" fill="#5B6470" opacity="0.82">GPT-5.2</text>
</svg>
