<svg xmlns="http://www.w3.org/2000/svg" viewBox="0 0 400 400" width="400" height="400">
  <defs>
    <linearGradient id="bg" x1="0" y1="0" x2="0" y2="1">
      <stop offset="0" stop-color="#FFF7E6"/>
      <stop offset="1" stop-color="#FFE2C6"/>
    </linearGradient>
    <linearGradient id="sky" x1="0" y1="0" x2="0" y2="1">
      <stop offset="0" stop-color="#87CEEB"/>
      <stop offset="1" stop-color="#CDEFFF"/>
    </linearGradient>
  </defs>

  <rect width="400" height="400" fill="url(#bg)"/>
  <rect x="0" y="230" width="400" height="18" fill="#A1887F" opacity="0.55"/>

  <g>
    <rect x="40" y="40" width="130" height="105" rx="8" fill="#8D6E63" opacity="0.65"/>
    <rect x="48" y="48" width="114" height="89" rx="6" fill="url(#sky)"/>
    <line x1="105" y1="48" x2="105" y2="137" stroke="#8D6E63" stroke-width="3" opacity="0.8"/>
    <line x1="48" y1="93" x2="162" y2="93" stroke="#8D6E63" stroke-width="3" opacity="0.8"/>
    <g fill="#FFFFFF" opacity="0.75">
      <circle cx="78" cy="75" r="10"/>
      <circle cx="92" cy="73" r="12"/>
      <circle cx="108" cy="75" r="10"/>
      <circle cx="130" cy="110" r="10"/>
      <circle cx="144" cy="108" r="12"/>
    </g>
  </g>

  <g transform="translate(210 285)">
    <ellipse cx="0" cy="0" rx="120" ry="40" fill="#7A5B50"/>
    <ellipse cx="0" cy="-3" rx="114" ry="34" fill="#9B786B"/>
  </g>

  <g transform="translate(205 275)">
    <ellipse cx="0" cy="0" rx="34" ry="22" fill="#E0E0E0"/>
    <ellipse cx="0" cy="0" rx="30" ry="18" fill="#FFFFFF"/>
    <circle cx="-10" cy="-2" r="4" fill="#4CAF50"/>
    <circle cx="2" cy="3" r="3" fill="#4CAF50"/>
    <path d="M -6 5 L 8 5 L 6 12 L -4 12 Z" fill="#FFD54F" stroke="#E6B94A" stroke-width="1"/>
  </g>

  <g transform="translate(260 265)">
    <rect x="-10" y="-18" width="20" height="34" rx="6" fill="#E3F2FD" opacity="0.65" stroke="#8D6E63" stroke-width="1.5"/>
    <rect x="-8" y="-2" width="16" height="16" rx="6" fill="#BBDEFB" opacity="0.75"/>
    <ellipse cx="0" cy="-18" rx="10" ry="4" fill="#FFFFFF" opacity="0.35"/>
  </g>

  <g transform="translate(215 305)">
    <ellipse cx="0" cy="20" rx="26" ry="32" fill="#6B9BD2"/>
    <rect x="-14" y="45" width="9" height="28" rx="4" fill="#F9C6CF"/>
    <rect x="5" y="45" width="9" height="28" rx="4" fill="#F9C6CF"/>

    <ellipse cx="0" cy="-16" rx="34" ry="28" fill="#F9C6CF"/>
    <ellipse cx="26" cy="-16" rx="12" ry="10" fill="#F9C6CF"/>
    <circle cx="29" cy="-19" r="2.6" fill="#FF69B4"/>
    <circle cx="29" cy="-13" r="2.6" fill="#FF69B4"/>

    <ellipse cx="-12" cy="-46" rx="7" ry="13" fill="#F9C6CF"/>
    <ellipse cx="12" cy="-46" rx="7" ry="13" fill="#F9C6CF"/>

    <ellipse cx="-5" cy="-20" rx="6" ry="7" fill="#FFFFFF"/>
    <ellipse cx="10" cy="-20" rx="6" ry="7" fill="#FFFFFF"/>
    <circle cx="-4" cy="-19" r="2.6" fill="#333"/>
    <circle cx="11" cy="-19" r="2.6" fill="#333"/>

    <path d="M -3 -7 Q 2 -3 7 -7" stroke="#333" stroke-width="2" fill="none" stroke-linecap="round"/>

    <path d="M -22 18 Q -12 18 -8 28" stroke="#F9C6CF" stroke-width="12" stroke-linecap="round" fill="none"/>
    <circle cx="-8" cy="28" r="7" fill="#F9C6CF"/>

    <path d="M 22 10 Q 38 6 46 -4" stroke="#F9C6CF" stroke-width="12" stroke-linecap="round" fill="none"/>
    <circle cx="46" cy="-4" r="7" fill="#F9C6CF"/>
  </g>

  <g transform="translate(120 250)">
    <ellipse cx="0" cy="35" rx="32" ry="38" fill="#FF8A65"/>
    <rect x="-14" y="68" width="9" height="40" rx="4" fill="#F9C6CF"/>
    <rect x="5" y="68" width="9" height="40" rx="4" fill="#F9C6CF"/>

    <ellipse cx="0" cy="-25" rx="36" ry="30" fill="#FFAB91"/>
    <ellipse cx="28" cy="-25" rx="12" ry="10" fill="#FFAB91"/>
    <circle cx="32" cy="-28" r="2.6" fill="#FF69B4"/>
    <circle cx="32" cy="-22" r="2.6" fill="#FF69B4"/>

    <ellipse cx="-13" cy="-53" rx="8" ry="12" fill="#FFAB91"/>
    <ellipse cx="13" cy="-53" rx="8" ry="12" fill="#FFAB91"/>

    <ellipse cx="-6" cy="-30" rx="6" ry="7" fill="#FFFFFF"/>
    <ellipse cx="10" cy="-30" rx="6" ry="7" fill="#FFFFFF"/>
    <circle cx="-5" cy="-29" r="2.6" fill="#333"/>
    <circle cx="11" cy="-29" r="2.6" fill="#333"/>

    <path d="M -2 -15 Q 6 -10 14 -15" stroke="#333" stroke-width="2" fill="none" stroke-linecap="round"/>

    <path d="M -30 28 Q -46 18 -40 4" stroke="#F9C6CF" stroke-width="12" stroke-linecap="round" fill="none"/>
    <ellipse cx="-46" cy="0" rx="7" ry="10" fill="#B0BEC5"/>
  </g>

  <text x="390" y="390" text-anchor="end" font-family="Arial, sans-serif" font-size="12" fill="#5B6470" opacity="0.82">GPT-5.2</text>
</svg>
