<svg xmlns="http://www.w3.org/2000/svg" viewBox="0 0 400 400" width="400" height="400">
  <defs>
    <linearGradient id="sky" x1="0" y1="0" x2="0" y2="1">
      <stop offset="0" stop-color="#86D9FF"/>
      <stop offset="1" stop-color="#D7F5FF"/>
    </linearGradient>
  </defs>

  <rect width="400" height="400" fill="url(#sky)"/>
  <path d="M 0 300 Q 200 265 400 305 L 400 400 L 0 400 Z" fill="#7BC043"/>

  <circle cx="70" cy="70" r="28" fill="#FFEB3B"/>
  <g stroke="#FFEB3B" stroke-width="4" stroke-linecap="round" opacity="0.9">
    <line x1="70" y1="28" x2="70" y2="16"/>
    <line x1="70" y1="112" x2="70" y2="124"/>
    <line x1="28" y1="70" x2="16" y2="70"/>
    <line x1="112" y1="70" x2="124" y2="70"/>
    <line x1="40" y1="40" x2="30" y2="30"/>
    <line x1="100" y1="40" x2="110" y2="30"/>
  </g>

  <g fill="#FFFFFF" opacity="0.8">
    <g transform="translate(155 95)">
      <circle cx="0" cy="0" r="14"/>
      <circle cx="18" cy="-2" r="18"/>
      <circle cx="38" cy="0" r="14"/>
    </g>
    <g transform="translate(285 85)">
      <circle cx="0" cy="0" r="12"/>
      <circle cx="14" cy="-2" r="16"/>
      <circle cx="30" cy="0" r="12"/>
    </g>
  </g>

  <!-- playgroup entrance -->
  <g transform="translate(240 150)">
    <rect x="0" y="40" width="150" height="190" rx="14" fill="#FFF8E1" stroke="#333" stroke-width="3"/>
    <rect x="24" y="88" width="56" height="86" rx="10" fill="#8D6E63"/>
    <circle cx="72" cy="132" r="4" fill="#FFD54F"/>
    <rect x="92" y="88" width="44" height="44" rx="8" fill="#BFEAFF" stroke="#333" stroke-width="2"/>
    <line x1="114" y1="88" x2="114" y2="132" stroke="#333" stroke-width="2"/>
    <line x1="92" y1="110" x2="136" y2="110" stroke="#333" stroke-width="2"/>

    <g transform="translate(36 10)">
      <rect x="0" y="0" width="78" height="44" rx="10" fill="#FFFFFF" stroke="#333" stroke-width="2"/>
      <g transform="translate(40 10)">
        <ellipse cx="-8" cy="20" rx="9" ry="7" fill="#333"/>
        <rect x="-2" y="-6" width="6" height="26" fill="#333"/>
        <path d="M 4 -6 Q 20 -4 22 8" stroke="#333" stroke-width="6" fill="none" stroke-linecap="round"/>
      </g>
    </g>
  </g>

  <!-- Madame Gazelle waving (right) -->
  <g transform="translate(310 290)">
    <ellipse cx="0" cy="55" rx="40" ry="52" fill="#9C27B0"/>
    <rect x="-18" y="98" width="10" height="46" rx="5" fill="#F9C6CF"/>
    <rect x="8" y="98" width="10" height="46" rx="5" fill="#F9C6CF"/>
    <ellipse cx="-13" cy="148" rx="12" ry="7" fill="#333"/>
    <ellipse cx="13" cy="148" rx="12" ry="7" fill="#333"/>

    <ellipse cx="0" cy="-10" rx="34" ry="38" fill="#FFF8E1"/>
    <path d="M -10 -44 Q -16 -66 -6 -72" stroke="#8D6E63" stroke-width="4" fill="none" stroke-linecap="round"/>
    <path d="M 10 -44 Q 16 -66 6 -72" stroke="#8D6E63" stroke-width="4" fill="none" stroke-linecap="round"/>
    <ellipse cx="-8" cy="-18" rx="6" ry="8" fill="#FFFFFF"/>
    <ellipse cx="10" cy="-18" rx="6" ry="8" fill="#FFFFFF"/>
    <circle cx="-6" cy="-16" r="3" fill="#333"/>
    <circle cx="12" cy="-16" r="3" fill="#333"/>
    <path d="M 2 -4 Q 12 0 22 -4" stroke="#333" stroke-width="2" fill="none" stroke-linecap="round"/>

    <path d="M -28 40 Q -56 24 -46 2" stroke="#F9C6CF" stroke-width="14" stroke-linecap="round" fill="none"/>
    <circle cx="-46" cy="2" r="9" fill="#F9C6CF"/>
    <g stroke="#333" stroke-width="2" opacity="0.4">
      <path d="M -66 -6 Q -58 -2 -66 2" fill="none"/>
      <path d="M -68 10 Q -60 14 -68 18" fill="none"/>
    </g>
  </g>

  <!-- Peppa with backpack waving (left-center) -->
  <g transform="translate(140 305)">
    <ellipse cx="0" cy="58" rx="50" ry="56" fill="#E63946"/>
    <rect x="-26" y="100" width="12" height="46" rx="6" fill="#F9C6CF"/>
    <rect x="14" y="100" width="12" height="46" rx="6" fill="#F9C6CF"/>
    <ellipse cx="-20" cy="150" rx="14" ry="8" fill="#333"/>
    <ellipse cx="20" cy="150" rx="14" ry="8" fill="#333"/>

    <ellipse cx="0" cy="-10" rx="56" ry="42" fill="#F9C6CF"/>
    <ellipse cx="50" cy="-10" rx="20" ry="15" fill="#F9C6CF"/>
    <circle cx="58" cy="-14" r="4" fill="#FF69B4"/>
    <circle cx="58" cy="-6" r="4" fill="#FF69B4"/>
    <ellipse cx="-18" cy="-44" rx="11" ry="19" fill="#F9C6CF"/>
    <ellipse cx="18" cy="-44" rx="11" ry="19" fill="#F9C6CF"/>

    <ellipse cx="-12" cy="-18" rx="7" ry="9" fill="#FFFFFF"/>
    <ellipse cx="15" cy="-18" rx="7" ry="9" fill="#FFFFFF"/>
    <circle cx="-10" cy="-16" r="3.2" fill="#333"/>
    <circle cx="17" cy="-16" r="3.2" fill="#333"/>
    <path d="M 2 2 Q 14 10 26 2" stroke="#333" stroke-width="3" fill="none" stroke-linecap="round"/>

    <path d="M -28 22 Q -10 10 -2 26" stroke="#4CAF50" stroke-width="6" fill="none" stroke-linecap="round"/>
    <path d="M 28 22 Q 10 10 2 26" stroke="#4CAF50" stroke-width="6" fill="none" stroke-linecap="round"/>
    <rect x="-14" y="26" width="28" height="30" rx="6" fill="#4CAF50" opacity="0.9"/>

    <path d="M -44 52 Q -70 36 -58 14" stroke="#F9C6CF" stroke-width="14" stroke-linecap="round" fill="none"/>
    <circle cx="-58" cy="14" r="9" fill="#F9C6CF"/>
  </g>

   <text x="390" y="390" text-anchor="end" font-family="Arial, sans-serif" font-size="12" fill="#5B6470" opacity="0.82">GPT 5.2</text>
</svg>
