<svg xmlns="http://www.w3.org/2000/svg" width="400" height="400" viewBox="0 0 400 400">
  <defs>
    <linearGradient id="wall23" x1="0" y1="0" x2="0" y2="1">
      <stop offset="0" stop-color="#F3FBFF"/>
      <stop offset="1" stop-color="#FFF3E0"/>
    </linearGradient>
    <linearGradient id="floor23" x1="0" y1="0" x2="0" y2="1">
      <stop offset="0" stop-color="#D7B08B"/>
      <stop offset="1" stop-color="#B9875D"/>
    </linearGradient>
    <filter id="shadow23" x="-20%" y="-20%" width="140%" height="140%">
      <feDropShadow dx="0" dy="2" stdDeviation="3" flood-color="#22313F" flood-opacity="0.18"/>
    </filter>
    <linearGradient id="banner23" x1="0" y1="0" x2="1" y2="0">
      <stop offset="0" stop-color="#FFD34D"/>
      <stop offset="1" stop-color="#FF8A65"/>
    </linearGradient>
  </defs>

  <!-- Classroom -->
  <rect width="400" height="400" fill="url(#wall23)"/>
  <rect y="280" width="400" height="120" fill="url(#floor23)"/>
  <path d="M0 280 H400" stroke="#A8744A" stroke-width="4" opacity="0.25"/>

  <!-- Simple window -->
  <g transform="translate(270 70)" filter="url(#shadow23)">
    <rect x="0" y="0" width="100" height="90" rx="10" fill="#8D6E63"/>
    <rect x="8" y="8" width="84" height="74" rx="8" fill="#90D6FF"/>
    <line x1="50" y1="8" x2="50" y2="82" stroke="#8D6E63" stroke-width="4"/>
    <line x1="8" y1="45" x2="92" y2="45" stroke="#8D6E63" stroke-width="4"/>
    <g fill="#FFFFFF" opacity="0.85" transform="translate(20 16)">
      <circle cx="0" cy="10" r="9"/><circle cx="12" cy="7" r="12"/><circle cx="26" cy="10" r="9"/><rect x="0" y="10" width="30" height="11" rx="5.5"/>
    </g>
  </g>

  <!-- Door + Madame Gazelle welcoming -->
  <g transform="translate(35 135)" filter="url(#shadow23)">
    <rect x="0" y="0" width="92" height="170" rx="12" fill="#8D6E63"/>
    <rect x="10" y="10" width="72" height="150" rx="10" fill="#C58A56"/>
    <circle cx="70" cy="92" r="5" fill="#6D4C41"/>
    <!-- Madame Gazelle -->
    <g transform="translate(75 120) scale(0.78)">
      <rect x="-18" y="112" width="10" height="46" rx="5" fill="#F9C6CF"/>
      <rect x="8" y="112" width="10" height="46" rx="5" fill="#F9C6CF"/>
      <ellipse cx="-13" cy="160" rx="14" ry="7" fill="#2C2C2C"/>
      <ellipse cx="13" cy="160" rx="14" ry="7" fill="#2C2C2C"/>
      <ellipse cx="0" cy="86" rx="44" ry="66" fill="#9C27B0"/>
      <path d="M32 80 C52 70 64 56 70 38" fill="none" stroke="#F9C6CF" stroke-width="14" stroke-linecap="round"/>
      <circle cx="70" cy="38" r="8" fill="#F9C6CF"/>
      <ellipse cx="0" cy="18" rx="42" ry="36" fill="#FFF8E1"/>
      <path d="M-16 -6 C-22 -20 -8 -22 -6 -10" fill="none" stroke="#6D4C41" stroke-width="4" stroke-linecap="round"/>
      <path d="M16 -6 C22 -20 8 -22 6 -10" fill="none" stroke="#6D4C41" stroke-width="4" stroke-linecap="round"/>
      <ellipse cx="-8" cy="16" rx="6.5" ry="8.5" fill="#FFFFFF"/>
      <ellipse cx="10" cy="16" rx="6.5" ry="8.5" fill="#FFFFFF"/>
      <circle cx="-6" cy="18" r="3.2" fill="#2C2C2C"/>
      <circle cx="12" cy="18" r="3.2" fill="#2C2C2C"/>
      <path d="M-8 34 C0 42 18 40 24 32" fill="none" stroke="#2C2C2C" stroke-width="3.5" stroke-linecap="round"/>
    </g>
  </g>

  <!-- Big "¡Hola!" banner -->
  <g transform="translate(55 20)" filter="url(#shadow23)">
    <rect x="0" y="0" width="290" height="46" rx="18" fill="url(#banner23)"/>
    <path d="M10 34 C60 10 110 44 160 16 C210 -6 250 22 280 10" fill="none" stroke="#FFFFFF" stroke-width="4" opacity="0.65"/>
    <text x="145" y="33" text-anchor="middle" font-family="Arial, sans-serif" font-size="28" font-weight="800" fill="#FFFFFF" stroke="#5B6470" stroke-width="2" paint-order="stroke">¡Hola!</text>
  </g>

  <!-- Peppa (front/center, big wave to whole class) -->
  <g transform="translate(200 250)" filter="url(#shadow23)">
    <rect x="-22" y="105" width="12" height="46" rx="6" fill="#F9C6CF"/>
    <rect x="10" y="105" width="12" height="46" rx="6" fill="#F9C6CF"/>
    <ellipse cx="-16" cy="153" rx="16" ry="8" fill="#2C2C2C"/>
    <ellipse cx="16" cy="153" rx="16" ry="8" fill="#2C2C2C"/>
    <ellipse cx="0" cy="76" rx="50" ry="58" fill="#E63946"/>
    <!-- Arms -->
    <path d="M-40 70 C-66 60 -80 46 -86 26" fill="none" stroke="#F9C6CF" stroke-width="18" stroke-linecap="round"/>
    <circle cx="-86" cy="26" r="10" fill="#F9C6CF"/>
    <path d="M40 70 C58 48 74 30 90 4" fill="none" stroke="#F9C6CF" stroke-width="18" stroke-linecap="round"/>
    <circle cx="90" cy="4" r="10" fill="#F9C6CF"/>
    <!-- Head -->
    <ellipse cx="0" cy="10" rx="58" ry="48" fill="#F9C6CF"/>
    <ellipse cx="52" cy="12" rx="22" ry="16" fill="#F9C6CF"/>
    <circle cx="60" cy="8" r="4" fill="#FF69B4"/>
    <circle cx="60" cy="16" r="4" fill="#FF69B4"/>
    <ellipse cx="-18" cy="-33" rx="12" ry="22" fill="#F9C6CF"/>
    <ellipse cx="18" cy="-33" rx="12" ry="22" fill="#F9C6CF"/>
    <ellipse cx="-10" cy="5" rx="8" ry="10" fill="#FFFFFF"/>
    <ellipse cx="16" cy="5" rx="8" ry="10" fill="#FFFFFF"/>
    <circle cx="-8" cy="7" r="4" fill="#2C2C2C"/>
    <circle cx="18" cy="7" r="4" fill="#2C2C2C"/>
    <path d="M-6 28 C10 42 34 38 42 22" fill="none" stroke="#2C2C2C" stroke-width="4" stroke-linecap="round"/>
    <circle cx="-26" cy="22" r="10" fill="#FFB6C1" opacity="0.55"/>
    <circle cx="30" cy="22" r="10" fill="#FFB6C1" opacity="0.55"/>
  </g>

  <!-- Friends semicircle behind Peppa (Suzy, Danny, Candy-like, plus one extra) -->
  <!-- Suzy Sheep -->
  <g transform="translate(120 285) scale(0.9)" filter="url(#shadow23)">
    <rect x="-18" y="90" width="10" height="40" rx="5" fill="#F9C6CF"/>
    <rect x="8" y="90" width="10" height="40" rx="5" fill="#F9C6CF"/>
    <ellipse cx="-13" cy="132" rx="14" ry="7" fill="#2C2C2C"/>
    <ellipse cx="13" cy="132" rx="14" ry="7" fill="#2C2C2C"/>
    <ellipse cx="0" cy="66" rx="40" ry="50" fill="#FFFFFF"/>
    <path d="M-30 62 C-48 50 -58 36 -64 18" fill="none" stroke="#F9C6CF" stroke-width="14" stroke-linecap="round"/>
    <circle cx="-64" cy="18" r="8" fill="#F9C6CF"/>
    <ellipse cx="0" cy="8" rx="44" ry="36" fill="#FFFFFF"/>
    <ellipse cx="40" cy="10" rx="18" ry="13" fill="#FFFFFF"/>
    <circle cx="46" cy="7" r="3.5" fill="#FF69B4"/>
    <circle cx="46" cy="13" r="3.5" fill="#FF69B4"/>
    <ellipse cx="-14" cy="-18" rx="10" ry="18" fill="#FFFFFF"/>
    <ellipse cx="14" cy="-18" rx="10" ry="18" fill="#FFFFFF"/>
    <circle cx="-8" cy="6" r="3.3" fill="#2C2C2C"/>
    <circle cx="12" cy="6" r="3.3" fill="#2C2C2C"/>
    <path d="M-4 24 C6 34 22 32 28 24" fill="none" stroke="#2C2C2C" stroke-width="4" stroke-linecap="round"/>
  </g>

  <!-- Danny Dog -->
  <g transform="translate(285 285) scale(0.9)" filter="url(#shadow23)">
    <rect x="-18" y="90" width="10" height="40" rx="5" fill="#F9C6CF"/>
    <rect x="8" y="90" width="10" height="40" rx="5" fill="#F9C6CF"/>
    <ellipse cx="-13" cy="132" rx="14" ry="7" fill="#2C2C2C"/>
    <ellipse cx="13" cy="132" rx="14" ry="7" fill="#2C2C2C"/>
    <ellipse cx="0" cy="66" rx="40" ry="50" fill="#FFB74D"/>
    <path d="M30 62 C48 50 58 36 64 18" fill="none" stroke="#F9C6CF" stroke-width="14" stroke-linecap="round"/>
    <circle cx="64" cy="18" r="8" fill="#F9C6CF"/>
    <ellipse cx="0" cy="8" rx="44" ry="36" fill="#FFB74D"/>
    <!-- Dog ears -->
    <ellipse cx="-18" cy="-8" rx="10" ry="18" fill="#FFB74D"/>
    <ellipse cx="18" cy="-8" rx="10" ry="18" fill="#FFB74D"/>
    <ellipse cx="40" cy="10" rx="18" ry="13" fill="#FFB74D"/>
    <circle cx="46" cy="7" r="3.5" fill="#FF69B4"/>
    <circle cx="46" cy="13" r="3.5" fill="#FF69B4"/>
    <circle cx="-8" cy="6" r="3.3" fill="#2C2C2C"/>
    <circle cx="12" cy="6" r="3.3" fill="#2C2C2C"/>
    <ellipse cx="6" cy="22" rx="8" ry="6" fill="#2C2C2C" opacity="0.85"/>
    <path d="M-2 26 C6 34 22 32 28 24" fill="none" stroke="#2C2C2C" stroke-width="4" stroke-linecap="round"/>
  </g>

  <!-- Candy Cat (simple, not in palette list; kept gentle) -->
  <g transform="translate(150 320) scale(0.75)" filter="url(#shadow23)" opacity="0.95">
    <rect x="-16" y="96" width="10" height="36" rx="5" fill="#F9C6CF"/>
    <rect x="6" y="96" width="10" height="36" rx="5" fill="#F9C6CF"/>
    <ellipse cx="-11" cy="136" rx="13" ry="7" fill="#2C2C2C"/>
    <ellipse cx="11" cy="136" rx="13" ry="7" fill="#2C2C2C"/>
    <ellipse cx="0" cy="70" rx="36" ry="46" fill="#FFCC80"/>
    <ellipse cx="0" cy="16" rx="40" ry="34" fill="#FFCC80"/>
    <!-- Cat ears -->
    <path d="M-22 0 L-10 -18 L0 0 Z" fill="#FFCC80"/>
    <path d="M22 0 L10 -18 L0 0 Z" fill="#FFCC80"/>
    <circle cx="-8" cy="14" r="3.2" fill="#2C2C2C"/>
    <circle cx="12" cy="14" r="3.2" fill="#2C2C2C"/>
    <path d="M-2 30 C6 38 20 36 24 28" fill="none" stroke="#2C2C2C" stroke-width="4" stroke-linecap="round"/>
    <g stroke="#2C2C2C" stroke-width="2" stroke-linecap="round" opacity="0.7">
      <line x1="-24" y1="22" x2="-36" y2="18"/>
      <line x1="-24" y1="26" x2="-36" y2="26"/>
      <line x1="24" y1="22" x2="36" y2="18"/>
      <line x1="24" y1="26" x2="36" y2="26"/>
    </g>
  </g>

  <!-- Extra friend (simple blob) -->
  <g transform="translate(250 322) scale(0.75)" filter="url(#shadow23)" opacity="0.95">
    <rect x="-16" y="96" width="10" height="36" rx="5" fill="#F9C6CF"/>
    <rect x="6" y="96" width="10" height="36" rx="5" fill="#F9C6CF"/>
    <ellipse cx="-11" cy="136" rx="13" ry="7" fill="#2C2C2C"/>
    <ellipse cx="11" cy="136" rx="13" ry="7" fill="#2C2C2C"/>
    <ellipse cx="0" cy="70" rx="36" ry="46" fill="#B3E5FC"/>
    <ellipse cx="0" cy="16" rx="40" ry="34" fill="#B3E5FC"/>
    <circle cx="-8" cy="14" r="3.2" fill="#2C2C2C"/>
    <circle cx="12" cy="14" r="3.2" fill="#2C2C2C"/>
    <path d="M-2 30 C6 38 20 36 24 28" fill="none" stroke="#2C2C2C" stroke-width="4" stroke-linecap="round"/>
  </g>

  <!-- Signature -->
  <text x="390" y="390" text-anchor="end" font-family="Arial, sans-serif" font-size="12" fill="#5B6470" opacity="0.85">GPT-5.2</text>
</svg>
