<svg xmlns="http://www.w3.org/2000/svg" width="400" height="400" viewBox="0 0 400 400">
  <defs>
    <linearGradient id="room25" x1="0" y1="0" x2="0" y2="1">
      <stop offset="0" stop-color="#FFF3E0"/>
      <stop offset="1" stop-color="#FFE0B2"/>
    </linearGradient>
    <linearGradient id="nightWindow25" x1="0" y1="0" x2="0" y2="1">
      <stop offset="0" stop-color="#223B7A"/>
      <stop offset="1" stop-color="#0F1E3D"/>
    </linearGradient>
    <radialGradient id="lampGlow25" cx="50%" cy="45%" r="65%">
      <stop offset="0" stop-color="#FFF6B0" stop-opacity="0.85"/>
      <stop offset="1" stop-color="#FFF6B0" stop-opacity="0"/>
    </radialGradient>
    <filter id="shadow25" x="-20%" y="-20%" width="140%" height="140%">
      <feDropShadow dx="0" dy="2" stdDeviation="3" flood-color="#22313F" flood-opacity="0.18"/>
    </filter>
  </defs>

  <!-- Cozy background -->
  <rect width="400" height="400" fill="url(#room25)"/>
  <rect x="0" y="290" width="400" height="110" fill="#D7B08B" opacity="0.7"/>

  <!-- Window with moon -->
  <g transform="translate(280 55)" filter="url(#shadow25)">
    <rect x="0" y="0" width="95" height="105" rx="10" fill="#8D6E63"/>
    <rect x="8" y="8" width="79" height="89" rx="8" fill="url(#nightWindow25)"/>
    <line x1="47.5" y1="8" x2="47.5" y2="97" stroke="#8D6E63" stroke-width="4"/>
    <line x1="8" y1="52" x2="87" y2="52" stroke="#8D6E63" stroke-width="4"/>
    <path d="M64 28 A16 16 0 1 0 64 60 A12 12 0 1 1 64 28 Z" fill="#FFF8E1" opacity="0.95"/>
    <g fill="#FFFFFF" opacity="0.75">
      <circle cx="20" cy="26" r="2.5"/><circle cx="28" cy="20" r="2"/><circle cx="34" cy="32" r="2"/>
      <circle cx="62" cy="76" r="2.5"/><circle cx="70" cy="70" r="2"/><circle cx="76" cy="82" r="2"/>
    </g>
  </g>

  <!-- Lamp with warm glow -->
  <g transform="translate(305 210)">
    <ellipse cx="0" cy="20" rx="90" ry="65" fill="url(#lampGlow25)"/>
    <g filter="url(#shadow25)">
      <rect x="-6" y="20" width="12" height="60" fill="#5B6470"/>
      <ellipse cx="0" cy="20" rx="14" ry="6" fill="#6B7A86"/>
      <path d="M-24 0 L-14 20 L14 20 L24 0 Z" fill="#FFE4B5" stroke="#5B6470" stroke-width="2" opacity="0.95"/>
    </g>
  </g>

  <!-- Daddy Pig in armchair reading (left) -->
  <g transform="translate(110 235)" filter="url(#shadow25)">
    <!-- Armchair -->
    <g transform="translate(0 70)">
      <rect x="-65" y="-80" width="130" height="90" rx="18" fill="#BA68C8"/>
      <rect x="-75" y="-15" width="150" height="60" rx="18" fill="#9C27B0"/>
      <rect x="-60" y="40" width="18" height="40" rx="8" fill="#7B1FA2"/>
      <rect x="42" y="40" width="18" height="40" rx="8" fill="#7B1FA2"/>
    </g>

    <!-- Daddy legs -->
    <rect x="-25" y="140" width="12" height="44" rx="6" fill="#F9C6CF"/>
    <rect x="13" y="140" width="12" height="44" rx="6" fill="#F9C6CF"/>
    <ellipse cx="-19" cy="187" rx="16" ry="8" fill="#2C2C2C"/>
    <ellipse cx="19" cy="187" rx="16" ry="8" fill="#2C2C2C"/>

    <!-- Daddy body -->
    <ellipse cx="0" cy="118" rx="52" ry="60" fill="#FF8A65"/>

    <!-- Arms holding book -->
    <path d="M-40 108 C-62 92 -76 78 -80 58" fill="none" stroke="#F9C6CF" stroke-width="18" stroke-linecap="round"/>
    <circle cx="-80" cy="58" r="10" fill="#F9C6CF"/>
    <path d="M40 108 C62 92 78 78 86 56" fill="none" stroke="#F9C6CF" stroke-width="18" stroke-linecap="round"/>
    <circle cx="86" cy="56" r="10" fill="#F9C6CF"/>

    <!-- Big open storybook -->
    <g transform="translate(20 60) rotate(-6)">
      <rect x="-80" y="-40" width="75" height="90" rx="8" fill="#FFFFFF" stroke="#5B6470" stroke-width="3"/>
      <rect x="-5" y="-40" width="75" height="90" rx="8" fill="#FFFFFF" stroke="#5B6470" stroke-width="3"/>
      <rect x="-8" y="-40" width="16" height="90" rx="6" fill="#8D6E63"/>
      <!-- Pictures: sun + castle -->
      <g transform="translate(-55 -10)">
        <circle cx="0" cy="0" r="14" fill="#FFD34D"/>
        <g stroke="#FFD34D" stroke-width="3" stroke-linecap="round">
          <line x1="0" y1="-22" x2="0" y2="-28"/>
          <line x1="0" y1="22" x2="0" y2="28"/>
          <line x1="-22" y1="0" x2="-28" y2="0"/>
          <line x1="22" y1="0" x2="28" y2="0"/>
        </g>
      </g>
      <g transform="translate(30 10)">
        <rect x="-20" y="-10" width="40" height="30" rx="4" fill="#90D6FF" stroke="#5B6470" stroke-width="2"/>
        <rect x="-10" y="-26" width="20" height="16" rx="3" fill="#FF8A65" stroke="#5B6470" stroke-width="2"/>
        <path d="M-20 20 L-20 34 L20 34 L20 20" fill="#7ED957" opacity="0.8"/>
      </g>
      <g stroke="#5B6470" stroke-width="2" opacity="0.25">
        <line x1="-72" y1="26" x2="-18" y2="26"/>
        <line x1="10" y1="26" x2="64" y2="26"/>
      </g>
    </g>

    <!-- Daddy head + glasses -->
    <ellipse cx="0" cy="58" rx="56" ry="46" fill="#FFAB91"/>
    <ellipse cx="-50" cy="58" rx="22" ry="16" fill="#FFAB91"/>
    <circle cx="-58" cy="54" r="4" fill="#FF69B4"/>
    <circle cx="-58" cy="62" r="4" fill="#FF69B4"/>
    <ellipse cx="-18" cy="20" rx="12" ry="22" fill="#FFAB91"/>
    <ellipse cx="18" cy="20" rx="12" ry="22" fill="#FFAB91"/>
    <g fill="none" stroke="#2C2C2C" stroke-width="3" opacity="0.85">
      <circle cx="-12" cy="52" r="11"/>
      <circle cx="16" cy="52" r="11"/>
      <path d="M-1 52 L5 52"/>
    </g>
    <circle cx="-12" cy="54" r="3.5" fill="#2C2C2C"/>
    <circle cx="16" cy="54" r="3.5" fill="#2C2C2C"/>
    <path d="M-8 78 C4 90 26 86 34 74" fill="none" stroke="#2C2C2C" stroke-width="4" stroke-linecap="round"/>
  </g>

  <!-- Rug -->
  <g transform="translate(230 330)" filter="url(#shadow25)">
    <ellipse cx="0" cy="0" rx="150" ry="45" fill="#7ED957" opacity="0.35"/>
  </g>

  <!-- Peppa + George sitting on floor listening -->
  <!-- Peppa (with Teddy) -->
  <g transform="translate(220 285)" filter="url(#shadow25)">
    <rect x="-22" y="98" width="12" height="30" rx="6" fill="#F9C6CF"/>
    <rect x="10" y="98" width="12" height="30" rx="6" fill="#F9C6CF"/>
    <ellipse cx="-16" cy="132" rx="16" ry="8" fill="#2C2C2C"/>
    <ellipse cx="16" cy="132" rx="16" ry="8" fill="#2C2C2C"/>
    <ellipse cx="0" cy="78" rx="46" ry="50" fill="#E63946"/>
    <!-- Arms hugging Teddy -->
    <path d="M-34 72 C-56 70 -70 62 -78 48" fill="none" stroke="#F9C6CF" stroke-width="16" stroke-linecap="round"/>
    <circle cx="-78" cy="48" r="9" fill="#F9C6CF"/>
    <path d="M34 72 C56 74 70 70 78 58" fill="none" stroke="#F9C6CF" stroke-width="16" stroke-linecap="round"/>
    <circle cx="78" cy="58" r="9" fill="#F9C6CF"/>
    <!-- Teddy -->
    <g transform="translate(70 78) scale(0.9)">
      <ellipse cx="0" cy="20" rx="18" ry="20" fill="#C59B6C"/>
      <circle cx="-10" cy="10" r="6" fill="#C59B6C"/>
      <circle cx="10" cy="10" r="6" fill="#C59B6C"/>
      <circle cx="-6" cy="20" r="2.5" fill="#2C2C2C"/>
      <circle cx="6" cy="20" r="2.5" fill="#2C2C2C"/>
      <ellipse cx="0" cy="28" rx="4" ry="3" fill="#2C2C2C"/>
      <path d="M-6 32 C-2 36 2 36 6 32" fill="none" stroke="#2C2C2C" stroke-width="2" stroke-linecap="round"/>
    </g>
    <!-- Head -->
    <ellipse cx="0" cy="14" rx="54" ry="42" fill="#F9C6CF"/>
    <ellipse cx="50" cy="16" rx="22" ry="16" fill="#F9C6CF"/>
    <circle cx="58" cy="12" r="4" fill="#FF69B4"/>
    <circle cx="58" cy="20" r="4" fill="#FF69B4"/>
    <ellipse cx="-18" cy="-20" rx="12" ry="22" fill="#F9C6CF"/>
    <ellipse cx="18" cy="-20" rx="12" ry="22" fill="#F9C6CF"/>
    <ellipse cx="-10" cy="12" rx="8" ry="10" fill="#FFFFFF"/>
    <ellipse cx="16" cy="12" rx="8" ry="10" fill="#FFFFFF"/>
    <circle cx="-8" cy="14" r="4" fill="#2C2C2C"/>
    <circle cx="18" cy="14" r="4" fill="#2C2C2C"/>
    <path d="M-6 36 C6 48 26 46 34 36" fill="none" stroke="#2C2C2C" stroke-width="4" stroke-linecap="round"/>
  </g>

  <!-- George (with Mr. Dinosaur) -->
  <g transform="translate(305 305) scale(0.85)" filter="url(#shadow25)">
    <ellipse cx="0" cy="70" rx="38" ry="46" fill="#6B9BD2"/>
    <rect x="-18" y="100" width="10" height="34" rx="5" fill="#F9C6CF"/>
    <rect x="8" y="100" width="10" height="34" rx="5" fill="#F9C6CF"/>
    <ellipse cx="-13" cy="137" rx="14" ry="7" fill="#2C2C2C"/>
    <ellipse cx="13" cy="137" rx="14" ry="7" fill="#2C2C2C"/>
    <path d="M28 66 C46 58 58 48 66 32" fill="none" stroke="#F9C6CF" stroke-width="14" stroke-linecap="round"/>
    <circle cx="66" cy="32" r="8" fill="#F9C6CF"/>
    <g transform="translate(60 70) rotate(-10)">
      <path d="M-26 10 C-10 -6 18 -6 28 8 C36 20 28 32 10 32 L-12 32 C-22 30 -30 22 -26 10 Z" fill="#4CAF50"/>
      <circle cx="6" cy="10" r="4" fill="#2C2C2C"/>
      <path d="M-14 18 L-6 14 L2 18" stroke="#2C2C2C" stroke-width="2" fill="none" stroke-linecap="round" stroke-linejoin="round"/>
    </g>
    <ellipse cx="0" cy="10" rx="44" ry="36" fill="#F9C6CF"/>
    <ellipse cx="40" cy="12" rx="18" ry="13" fill="#F9C6CF"/>
    <circle cx="46" cy="9" r="3.5" fill="#FF69B4"/>
    <circle cx="46" cy="15" r="3.5" fill="#FF69B4"/>
    <ellipse cx="-14" cy="-16" rx="10" ry="18" fill="#F9C6CF"/>
    <ellipse cx="14" cy="-16" rx="10" ry="18" fill="#F9C6CF"/>
    <circle cx="-6" cy="10" r="3.2" fill="#2C2C2C"/>
    <circle cx="14" cy="10" r="3.2" fill="#2C2C2C"/>
    <path d="M-4 28 C4 34 18 34 24 28" fill="none" stroke="#2C2C2C" stroke-width="4" stroke-linecap="round"/>
  </g>

  <!-- Little sparkle stars around the story time -->
  <g fill="#FFD34D" opacity="0.75" filter="url(#shadow25)">
    <path d="M230 130 L234 142 L246 146 L234 150 L230 162 L226 150 L214 146 L226 142 Z"/>
    <path d="M265 155 L268 164 L277 167 L268 170 L265 179 L262 170 L253 167 L262 164 Z"/>
  </g>

  <!-- Signature -->
  <text x="390" y="390" text-anchor="end" font-family="Arial, sans-serif" font-size="12" fill="#5B6470" opacity="0.85">GPT-5.2</text>
</svg>
