<?xml version="1.0" encoding="UTF-8"?>
<svg xmlns="http://www.w3.org/2000/svg" width="400" height="400" viewBox="0 0 400 400" role="img" aria-label="This is my little brother George">
  <rect width="100%" height="100%" fill="#FFFFFF"/>
  <defs>
    <style><![CDATA[
      .ol { stroke: #222222; stroke-width: 4; stroke-linecap: round; stroke-linejoin: round; }
      .softol { stroke: #222222; stroke-width: 3; stroke-linecap: round; stroke-linejoin: round; }
    ]]></style>
  </defs>
<circle cx="70" cy="70" r="28" fill="#87CEEB" opacity="0.35"/><ellipse class="ol" cx="114.0" cy="106.0" rx="10.4" ry="12.0" fill="#F9C6CF"/>
  <ellipse class="ol" cx="186.0" cy="106.0" rx="10.4" ry="12.0" fill="#F9C6CF"/>
  <ellipse class="ol" cx="150" cy="150" rx="52.0" ry="42.0" fill="#F9C6CF"/>
  <ellipse class="ol" cx="174.0" cy="158.0" rx="28.0" ry="19.200000000000003" fill="#F7A8B8"/>
  <circle cx="162.0" cy="158.0" r="4.0" fill="#222222"/>
  <circle cx="186.0" cy="158.0" r="4.0" fill="#222222"/>
  <circle cx="134.0" cy="142.0" r="6.4" fill="#222222"/>
  <circle cx="158.0" cy="142.0" r="6.4" fill="#222222"/>
  <circle cx="110.0" cy="158.0" r="4.800000000000001" fill="#F59FB4" opacity="0.9"/>
  <path class="softol" d="M 142.0 170.0 Q 154.0 182.0 170.0 170.0" fill="none"/>
  <rect class="ol" x="94.0" y="194.0" width="112.0" height="120.0" rx="32.0" fill="#6B9BD2"/>
  <path class="ol" d="M 114.0 230.0 Q 86.0 246.0 102.0 266.0" fill="none"/>
  <path class="ol" d="M 186.0 230.0 Q 214.0 246.0 198.0 266.0" fill="none"/>
  <path class="ol" d="M 122.0 314.0 L 122.0 342.0"/>
  <path class="ol" d="M 178.0 314.0 L 178.0 342.0"/>
  <ellipse class="ol" cx="122.0" cy="347.6" rx="14.4" ry="6.4" fill="#000000"/>
  <ellipse class="ol" cx="178.0" cy="347.6" rx="14.4" ry="6.4" fill="#000000"/><path class="ol" d="M 255 265 Q 280 245 305 260 Q 335 280 325 305 Q 310 340 270 330 Q 240 323 230 300 Q 225 285 240 275 Z" fill="#3BB273"/><circle cx="305" cy="275" r="6" fill="#222222"/><path class="softol" d="M 312 288 Q 300 300 288 290" fill="none"/><path class="softol" d="M 270 330 L 270 352"/><path class="softol" d="M 292 332 L 292 354"/><path class="softol" d="M 312 322 L 312 344"/><path d="M 320 189.0 L 323.3 196.7 L 331.0 200 L 323.3 203.3 L 320 211.0 L 316.7 203.3 L 309.0 200 L 316.7 196.7 Z" fill="#FFD700" stroke="#222222" stroke-width="3" stroke-linejoin="round"/>  <text x="390" y="390" text-anchor="end" font-family="Arial, sans-serif" font-size="12" fill="#5B6470" opacity="0.85">GPT 5.2</text>
</svg>
