<?xml version="1.0" encoding="UTF-8"?>
<svg xmlns="http://www.w3.org/2000/svg" width="400" height="400" viewBox="0 0 400 400" role="img" aria-label="Please">
  <rect width="100%" height="100%" fill="#FFFFFF"/>
  <defs>
    <style><![CDATA[
      .ol { stroke: #222222; stroke-width: 4; stroke-linecap: round; stroke-linejoin: round; }
      .softol { stroke: #222222; stroke-width: 3; stroke-linecap: round; stroke-linejoin: round; }
    ]]></style>
  </defs>
<ellipse class="ol" cx="81.75" cy="113.25" rx="11.049999999999999" ry="12.75" fill="#F9C6CF"/>
  <ellipse class="ol" cx="158.25" cy="113.25" rx="11.049999999999999" ry="12.75" fill="#F9C6CF"/>
  <ellipse class="ol" cx="120" cy="160" rx="55.25" ry="44.625" fill="#F9C6CF"/>
  <ellipse class="ol" cx="145.5" cy="168.5" rx="29.75" ry="20.4" fill="#F7A8B8"/>
  <circle cx="132.75" cy="168.5" r="4.25" fill="#222222"/>
  <circle cx="158.25" cy="168.5" r="4.25" fill="#222222"/>
  <circle cx="103.0" cy="151.5" r="6.8" fill="#222222"/>
  <circle cx="128.5" cy="151.5" r="6.8" fill="#222222"/>
  <circle cx="77.5" cy="168.5" r="5.1" fill="#F59FB4" opacity="0.9"/>
  <path class="softol" d="M 111.5 181.25 Q 124.25 194.0 141.25 181.25" fill="none"/>
  <rect class="ol" x="60.5" y="206.75" width="119.0" height="127.5" rx="34.0" fill="#F9C6CF"/>
  <path class="ol" d="M 81.75 245.0 Q 52.0 262.0 69.0 283.25" fill="none"/>
  <path class="ol" d="M 158.25 245.0 Q 188.0 262.0 171.0 283.25" fill="none"/>
  <path class="ol" d="M 90.25 334.25 L 90.25 364.0"/>
  <path class="ol" d="M 149.75 334.25 L 149.75 364.0"/>
  <ellipse class="ol" cx="90.25" cy="369.95" rx="15.299999999999999" ry="6.8" fill="#000000"/>
  <ellipse class="ol" cx="149.75" cy="369.95" rx="15.299999999999999" ry="6.8" fill="#000000"/><path class="ol" d="M 235 260 Q 260 230 285 260 Q 310 290 260 325 Q 210 290 235 260 Z" fill="#FF7AA2"/><path d="M 300 202.0 L 302.4 207.6 L 308.0 210 L 302.4 212.4 L 300 218.0 L 297.6 212.4 L 292.0 210 L 297.6 207.6 Z" fill="#FFD166" stroke="#222222" stroke-width="3" stroke-linejoin="round"/>  <text x="390" y="390" text-anchor="end" font-family="Arial, sans-serif" font-size="12" fill="#5B6470" opacity="0.85">GPT 5.2</text>
</svg>
