<svg viewBox="0 0 400 400" xmlns="http://www.w3.org/2000/svg">
  <!-- Background: Cozy living room -->
  <rect width="400" height="400" fill="#FFF8E1"/>
  <!-- Floor -->
  <rect x="0" y="300" width="400" height="100" fill="#FCE4EC"/>
  <!-- Window -->
  <rect x="250" y="50" width="100" height="80" fill="#87CEEB"/>
  <!-- Side table -->
  <rect x="50" y="250" width="40" height="30" fill="#8D6E63"/>
  <!-- Plant -->
  <circle cx="70" cy="240" r="12" fill="#4CAF50"/>
  <rect x="68" y="250" width="4" height="15" fill="#795548"/>
  <!-- Daddy Pig -->
  <!-- Body -->
  <ellipse cx="100" cy="250" rx="25" ry="40" fill="#FF8A65"/>
  <!-- Head -->
  <circle cx="100" cy="190" r="30" fill="#FFAB91"/>
  <!-- Snout -->
  <ellipse cx="100" cy="200" rx="8" ry="5" fill="#FF69B4"/>
  <!-- Eyes -->
  <circle cx="90" cy="180" r="4" fill="#000"/>
  <circle cx="110" cy="180" r="4" fill="#000"/>
  <!-- Proud smile -->
  <path d="M90 205 Q100 215 110 205" stroke="#000" stroke-width="2" fill="none"/>
  <!-- Arms extended handing gift -->
  <ellipse cx="75" cy="240" rx="8" ry="18" fill="#FFAB91"/>
  <ellipse cx="125" cy="240" rx="8" ry="18" fill="#FFAB91"/>
  <!-- Legs -->
  <ellipse cx="85" cy="300" rx="8" ry="25" fill="#FFAB91"/>
  <ellipse cx="115" cy="300" rx="8" ry="25" fill="#FFAB91"/>
  <!-- Peppa Pig -->
  <!-- Body -->
  <ellipse cx="200" cy="280" rx="25" ry="35" fill="#E63946"/>
  <!-- Head -->
  <circle cx="200" cy="230" r="30" fill="#F9C6CF"/>
  <!-- Snout -->
  <ellipse cx="200" cy="240" rx="8" ry="5" fill="#FF69B4"/>
  <!-- Eyes wide and happy -->
  <circle cx="190" cy="220" r="4" fill="#000"/>
  <circle cx="210" cy="220" r="4" fill="#000"/>
  <!-- Big genuine smile -->
  <path d="M185 245 Q200 260 215 245" stroke="#000" stroke-width="2" fill="none"/>
  <!-- Arms holding present -->
  <ellipse cx="185" cy="270" rx="8" ry="15" fill="#F9C6CF"/>
  <ellipse cx="215" cy="270" rx="8" ry="15" fill="#F9C6CF"/>
  <!-- Legs -->
  <ellipse cx="190" cy="320" rx="8" ry="20" fill="#F9C6CF"/>
  <ellipse cx="210" cy="320" rx="8" ry="20" fill="#F9C6CF"/>
  <!-- Wrapped present box -->
  <rect x="170" y="250" width="60" height="50" fill="#E91E63"/>
  <rect x="175" y="255" width="50" height="40" fill="#FFF"/>
  <!-- Red ribbon bow -->
  <path d="M195 250 Q200 245 205 250 Q200 255 195 250" fill="#D32F2F"/>
  <path d="M195 250 Q200 240 205 250" stroke="#D32F2F" stroke-width="2" fill="none"/>
  <path d="M195 250 Q200 260 205 250" stroke="#D32F2F" stroke-width="2" fill="none"/>
  <rect x="198" y="250" width="4" height="50" fill="#D32F2F"/>
  <!-- Signature -->
  <text x="390" y="390" text-anchor="end" font-family="Arial, sans-serif" font-size="12" fill="#5B6470" opacity="0.85">Composer 1</text>
</svg>