<?xml version="1.0" encoding="UTF-8"?>
<svg xmlns="http://www.w3.org/2000/svg" width="400" height="400" viewBox="0 0 400 400" role="img" aria-label="I'm sorry">
  <rect width="100%" height="100%" fill="#FFFFFF"/>
  <defs>
    <style><![CDATA[
      .ol { stroke: #222222; stroke-width: 4; stroke-linecap: round; stroke-linejoin: round; }
      .softol { stroke: #222222; stroke-width: 3; stroke-linecap: round; stroke-linejoin: round; }
    ]]></style>
  </defs>
<ellipse class="ol" cx="127.25" cy="97.75" rx="12.35" ry="14.25" fill="#F9C6CF"/>
  <ellipse class="ol" cx="212.75" cy="97.75" rx="12.35" ry="14.25" fill="#F9C6CF"/>
  <ellipse class="ol" cx="170" cy="150" rx="61.75" ry="49.875" fill="#F9C6CF"/>
  <ellipse class="ol" cx="198.5" cy="159.5" rx="33.25" ry="22.799999999999997" fill="#F7A8B8"/>
  <circle cx="184.25" cy="159.5" r="4.75" fill="#222222"/>
  <circle cx="212.75" cy="159.5" r="4.75" fill="#222222"/>
  <circle cx="151.0" cy="140.5" r="7.6" fill="#222222"/>
  <circle cx="179.5" cy="140.5" r="7.6" fill="#222222"/>
  <circle cx="122.5" cy="159.5" r="5.699999999999999" fill="#F59FB4" opacity="0.9"/>
  <path class="softol" d="M 160.5 173.75 Q 174.75 188.0 193.75 173.75" fill="none"/>
  <rect class="ol" x="103.5" y="202.25" width="133.0" height="142.5" rx="38.0" fill="#F9C6CF"/>
  <path class="ol" d="M 127.25 245.0 Q 94.0 264.0 113.0 287.75" fill="none"/>
  <path class="ol" d="M 212.75 245.0 Q 246.0 264.0 227.0 287.75" fill="none"/>
  <path class="ol" d="M 136.75 344.75 L 136.75 378.0"/>
  <path class="ol" d="M 203.25 344.75 L 203.25 378.0"/>
  <ellipse class="ol" cx="136.75" cy="384.65" rx="17.099999999999998" ry="7.6" fill="#000000"/>
  <ellipse class="ol" cx="203.25" cy="384.65" rx="17.099999999999998" ry="7.6" fill="#000000"/><path d="M 165 150 C 155 170 155 180 165 190 C 175 180 175 170 165 150 Z" fill="#4DA3FF" stroke="#222222" stroke-width="3"/><circle cx="295" cy="270" r="18" fill="#FFD166" stroke="#222222" stroke-width="3"/><ellipse cx="323.0" cy="270.0" rx="14" ry="10" fill="#FF8FAB" stroke="#222222" stroke-width="3"/><ellipse cx="309.0" cy="294.24871130596426" rx="14" ry="10" fill="#FF8FAB" stroke="#222222" stroke-width="3"/><ellipse cx="281.0" cy="294.24871130596426" rx="14" ry="10" fill="#FF8FAB" stroke="#222222" stroke-width="3"/><ellipse cx="267.0" cy="270.0" rx="14" ry="10" fill="#FF8FAB" stroke="#222222" stroke-width="3"/><ellipse cx="281.0" cy="245.75128869403574" rx="14" ry="10" fill="#FF8FAB" stroke="#222222" stroke-width="3"/><ellipse cx="309.0" cy="245.7512886940357" rx="14" ry="10" fill="#FF8FAB" stroke="#222222" stroke-width="3"/><rect x="290" y="290" width="10" height="60" rx="5" fill="#3BB273" stroke="#222222" stroke-width="3"/>  <text x="390" y="390" text-anchor="end" font-family="Arial, sans-serif" font-size="12" fill="#5B6470" opacity="0.85">GPT 5.2</text>
</svg>
