<svg viewBox="0 0 400 400" xmlns="http://www.w3.org/2000/svg">
  <!-- Background: Front door scene -->
  <rect width="400" height="400" fill="#FFF8E1"/>
  <!-- Yellow house -->
  <rect x="150" y="100" width="200" height="200" fill="#FFC107"/>
  <polygon points="150,100 250,50 350,100" fill="#D32F2F"/>
  <!-- Door -->
  <rect x="220" y="200" width="60" height="100" fill="#8D6E63"/>
  <circle cx="270" cy="250" r="3" fill="#5D4037"/>
  <!-- Window -->
  <rect x="170" y="130" width="30" height="40" fill="#87CEEB"/>
  <rect x="320" y="130" width="30" height="40" fill="#87CEEB"/>
  <!-- Sunny day outside -->
  <rect x="0" y="0" width="150" height="400" fill="#E8F5E8"/>
  <rect x="0" y="300" width="150" height="100" fill="#4CAF50"/>
  <!-- Path -->
  <rect x="0" y="320" width="150" height="20" fill="#D7CCC8"/>
  <!-- Car in driveway -->
  <rect x="20" y="280" width="50" height="30" fill="#2196F3"/>
  <rect x="25" y="275" width="40" height="10" fill="#1976D2"/>
  <circle cx="35" cy="310" r="8" fill="#212121"/>
  <circle cx="55" cy="310" r="8" fill="#212121"/>
  <!-- Sun -->
  <circle cx="50" cy="50" r="20" fill="#FFC107"/>
  <!-- Peppa Pig -->
  <!-- Body -->
  <ellipse cx="200" cy="280" rx="25" ry="35" fill="#E63946"/>
  <!-- Head -->
  <circle cx="200" cy="230" r="30" fill="#F9C6CF"/>
  <!-- Snout -->
  <ellipse cx="200" cy="240" rx="8" ry="5" fill="#FF69B4"/>
  <!-- Eyes bright -->
  <circle cx="190" cy="220" r="4" fill="#000"/>
  <circle cx="210" cy="220" r="4" fill="#000"/>
  <!-- Enthusiastic smile -->
  <path d="M185 245 Q200 260 215 245" stroke="#000" stroke-width="2" fill="none"/>
  <!-- Arms: one pointing forward -->
  <ellipse cx="180" cy="270" rx="8" ry="15" fill="#F9C6CF"/>
  <ellipse cx="220" cy="240" rx="8" ry="20" fill="#F9C6CF" transform="rotate(45 220 240)"/>
  <!-- Legs -->
  <ellipse cx="190" cy="320" rx="8" ry="20" fill="#F9C6CF"/>
  <ellipse cx="210" cy="320" rx="8" ry="20" fill="#F9C6CF"/>
  <!-- Daddy Pig putting on coat -->
  <!-- Body -->
  <ellipse cx="280" cy="280" rx="25" ry="40" fill="#FF8A65"/>
  <!-- Head -->
  <circle cx="280" cy="220" r="30" fill="#FFAB91"/>
  <!-- Snout -->
  <ellipse cx="280" cy="230" rx="8" ry="5" fill="#FF69B4"/>
  <!-- Eyes -->
  <circle cx="270" cy="210" r="4" fill="#000"/>
  <circle cx="290" cy="210" r="4" fill="#000"/>
  <!-- Smile -->
  <path d="M270 235 Q280 245 290 235" stroke="#000" stroke-width="2" fill="none"/>
  <!-- Arms putting on coat -->
  <ellipse cx="265" cy="270" rx="8" ry="18" fill="#FFAB91"/>
  <ellipse cx="295" cy="270" rx="8" ry="18" fill="#FFAB91"/>
  <!-- Coat -->
  <rect x="255" y="240" width="50" height="60" fill="#424242" opacity="0.7"/>
  <!-- Legs -->
  <ellipse cx="270" cy="330" rx="8" ry="25" fill="#FFAB91"/>
  <ellipse cx="290" cy="330" rx="8" ry="25" fill="#FFAB91"/>
  <!-- George with backpack -->
  <!-- Body -->
  <ellipse cx="320" cy="300" rx="20" ry="30" fill="#6B9BD2"/>
  <!-- Head -->
  <circle cx="320" cy="250" r="25" fill="#F9C6CF"/>
  <!-- Snout -->
  <ellipse cx="320" cy="260" rx="6" ry="4" fill="#FF69B4"/>
  <!-- Eyes -->
  <circle cx="310" cy="240" r="3" fill="#000"/>
  <circle cx="330" cy="240" r="3" fill="#000"/>
  <!-- Smile -->
  <path d="M310 265 Q320 275 330 265" stroke="#000" stroke-width="2" fill="none"/>
  <!-- Arms -->
  <ellipse cx="305" cy="290" rx="6" ry="12" fill="#F9C6CF"/>
  <ellipse cx="335" cy="290" rx="6" ry="12" fill="#F9C6CF"/>
  <!-- Legs -->
  <ellipse cx="312" cy="340" rx="6" ry="15" fill="#F9C6CF"/>
  <ellipse cx="328" cy="340" rx="6" ry="15" fill="#F9C6CF"/>
  <!-- Backpack -->
  <rect x="315" y="260" width="15" height="20" fill="#4CAF50"/>
  <!-- Mr. Dinosaur -->
  <circle cx="335" cy="290" r="8" fill="#4CAF50"/>
  <!-- Mummy Pig with picnic basket -->
  <!-- Body -->
  <ellipse cx="250" cy="300" rx="20" ry="35" fill="#FF8A65"/>
  <!-- Head -->
  <circle cx="250" cy="240" r="25" fill="#FFAB91"/>
  <!-- Snout -->
  <ellipse cx="250" cy="250" rx="6" ry="4" fill="#FF69B4"/>
  <!-- Eyes -->
  <circle cx="242" cy="230" r="3" fill="#000"/>
  <circle cx="258" cy="230" r="3" fill="#000"/>
  <!-- Warm smile -->
  <path d="M242 255 Q250 265 258 255" stroke="#000" stroke-width="2" fill="none"/>
  <!-- Arms holding basket -->
  <ellipse cx="235" cy="290" rx="6" ry="15" fill="#FFAB91"/>
  <ellipse cx="265" cy="290" rx="6" ry="15" fill="#FFAB91"/>
  <!-- Legs -->
  <ellipse cx="243" cy="340" rx="6" ry="20" fill="#FFAB91"/>
  <ellipse cx="257" cy="340" rx="6" ry="20" fill="#FFAB91"/>
  <!-- Picnic basket -->
  <ellipse cx="250" cy="285" rx="20" ry="15" fill="#8D6E63"/>
  <rect x="230" y="270" width="40" height="20" fill="#795548"/>
  <!-- Signature -->
  <text x="390" y="390" text-anchor="end" font-family="Arial, sans-serif" font-size="12" fill="#5B6470" opacity="0.85">Composer 1</text>
</svg>