<svg viewBox="0 0 400 400" xmlns="http://www.w3.org/2000/svg">
  <!-- Background: Bedroom -->
  <rect width="400" height="400" fill="#FFF3E0"/>
  <!-- Floor -->
  <rect x="0" y="300" width="400" height="100" fill="#FCE4EC"/>
  <!-- Bed -->
  <rect x="250" y="200" width="120" height="80" fill="#2196F3"/>
  <!-- Window -->
  <rect x="20" y="20" width="80" height="60" fill="#87CEEB"/>
  <!-- Scattered toys -->
  <!-- Ball -->
  <circle cx="100" cy="350" r="15" fill="#FF5722"/>
  <!-- Blocks -->
  <rect x="150" y="340" width="20" height="20" fill="#4CAF50"/>
  <!-- Teddy bear -->
  <circle cx="200" cy="345" r="12" fill="#795548"/>
  <!-- Peppa kneeling -->
  <!-- Body -->
  <ellipse cx="120" cy="280" rx="25" ry="35" fill="#E63946"/>
  <!-- Head -->
  <circle cx="120" cy="230" r="30" fill="#F9C6CF"/>
  <!-- Snout -->
  <ellipse cx="120" cy="240" rx="8" ry="5" fill="#FF69B4"/>
  <!-- Eyes wide -->
  <circle cx="110" cy="220" r="4" fill="#000"/>
  <circle cx="130" cy="220" r="4" fill="#000"/>
  <!-- Mouth open -->
  <ellipse cx="120" cy="250" rx="5" ry="3" fill="#000"/>
  <!-- Arms holding up Mr. Dinosaur -->
  <ellipse cx="100" cy="270" rx="8" ry="15" fill="#F9C6CF"/>
  <ellipse cx="140" cy="270" rx="8" ry="15" fill="#F9C6CF"/>
  <!-- Legs kneeling -->
  <ellipse cx="110" cy="320" rx="8" ry="20" fill="#F9C6CF"/>
  <ellipse cx="130" cy="320" rx="8" ry="20" fill="#F9C6CF"/>
  <!-- Mr. Dinosaur -->
  <circle cx="120" cy="270" r="10" fill="#4CAF50"/>
  <!-- George -->
  <!-- Body -->
  <ellipse cx="280" cy="290" rx="20" ry="30" fill="#6B9BD2"/>
  <!-- Head -->
  <circle cx="280" cy="240" r="25" fill="#F9C6CF"/>
  <!-- Snout -->
  <ellipse cx="280" cy="250" rx="6" ry="4" fill="#FF69B4"/>
  <!-- Eyes -->
  <circle cx="270" cy="230" r="3" fill="#000"/>
  <circle cx="290" cy="230" r="3" fill="#000"/>
  <!-- Smile relieved -->
  <path d="M270 255 Q280 265 290 255" stroke="#000" stroke-width="2" fill="none"/>
  <!-- Arms -->
  <ellipse cx="260" cy="280" rx="6" ry="12" fill="#F9C6CF"/>
  <ellipse cx="300" cy="280" rx="6" ry="12" fill="#F9C6CF"/>
  <!-- Legs -->
  <ellipse cx="270" cy="330" rx="6" ry="15" fill="#F9C6CF"/>
  <ellipse cx="290" cy="330" rx="6" ry="15" fill="#F9C6CF"/>
  <!-- Signature -->
  <text x="390" y="390" text-anchor="end" font-family="Arial, sans-serif" font-size="12" fill="#5B6470" opacity="0.85">Grok</text>
</svg>