<?xml version="1.0" encoding="UTF-8"?>
<svg xmlns="http://www.w3.org/2000/svg" width="400" height="400" viewBox="0 0 400 400" role="img" aria-label="I don't know">
  <rect width="100%" height="100%" fill="#FFFFFF"/>
  <defs>
    <style><![CDATA[
      .ol { stroke: #222222; stroke-width: 4; stroke-linecap: round; stroke-linejoin: round; }
      .softol { stroke: #222222; stroke-width: 3; stroke-linecap: round; stroke-linejoin: round; }
    ]]></style>
  </defs>
<ellipse class="ol" cx="107.25" cy="117.75" rx="12.35" ry="14.25" fill="#F9C6CF"/>
  <ellipse class="ol" cx="192.75" cy="117.75" rx="12.35" ry="14.25" fill="#F9C6CF"/>
  <ellipse class="ol" cx="150" cy="170" rx="61.75" ry="49.875" fill="#F9C6CF"/>
  <ellipse class="ol" cx="178.5" cy="179.5" rx="33.25" ry="22.799999999999997" fill="#F7A8B8"/>
  <circle cx="164.25" cy="179.5" r="4.75" fill="#222222"/>
  <circle cx="192.75" cy="179.5" r="4.75" fill="#222222"/>
  <circle cx="131.0" cy="160.5" r="7.6" fill="#222222"/>
  <circle cx="159.5" cy="160.5" r="7.6" fill="#222222"/>
  <circle cx="102.5" cy="179.5" r="5.699999999999999" fill="#F59FB4" opacity="0.9"/>
  <path class="softol" d="M 140.5 193.75 Q 154.75 208.0 173.75 193.75" fill="none"/>
  <rect class="ol" x="83.5" y="222.25" width="133.0" height="142.5" rx="38.0" fill="#F9C6CF"/>
  <path class="ol" d="M 107.25 265.0 Q 74.0 284.0 93.0 307.75" fill="none"/>
  <path class="ol" d="M 192.75 265.0 Q 226.0 284.0 207.0 307.75" fill="none"/>
  <path class="ol" d="M 116.75 364.75 L 116.75 398.0"/>
  <path class="ol" d="M 183.25 364.75 L 183.25 398.0"/>
  <ellipse class="ol" cx="116.75" cy="404.65" rx="17.099999999999998" ry="7.6" fill="#000000"/>
  <ellipse class="ol" cx="183.25" cy="404.65" rx="17.099999999999998" ry="7.6" fill="#000000"/><path class="ol" d="M 80 260 Q 110 235 140 260" fill="none"/><path class="ol" d="M 215 260 Q 245 235 275 260" fill="none"/><circle class="ol" cx="310" cy="155" r="50" fill="#F1F5F9"/><path class="ol" d="M 300 142 Q 310 120 325 130 Q 340 140 320 160 Q 310 170 310 182" fill="none"/><circle cx="310" cy="197" r="6" fill="#222222"/>  <text x="390" y="390" text-anchor="end" font-family="Arial, sans-serif" font-size="12" fill="#5B6470" opacity="0.85">GPT 5.2</text>
</svg>
