<svg xmlns="http://www.w3.org/2000/svg" viewBox="0 0 400 400" width="400" height="400">
  <rect width="400" height="400" fill="#FFEFD5"/> <!-- Background -->
  
  <!-- Table -->
  <rect x="50" y="300" width="300" height="100" fill="#8B4513"/>
  
  <!-- Peppa -->
  <g transform="translate(150, 150)">
    <ellipse cx="0" cy="30" rx="35" ry="40" fill="#E63946"/> <!-- Dress -->
    <ellipse cx="0" cy="-30" rx="45" ry="35" fill="#F9C6CF"/> <!-- Head -->
    <ellipse cx="35" cy="-30" rx="18" ry="14" fill="#F9C6CF"/> <!-- Snout -->
    <circle cx="42" cy="-33" r="4" fill="#FF69B4"/>
    <circle cx="42" cy="-27" r="4" fill="#FF69B4"/>
    <ellipse cx="-15" cy="-65" rx="10" ry="18" fill="#F9C6CF"/> <!-- Ears -->
    <ellipse cx="15" cy="-65" rx="10" ry="18" fill="#F9C6CF"/>
    <circle cx="-5" cy="-35" r="3" fill="#333"/> <!-- Eyes -->
    <circle cx="12" cy="-35" r="3" fill="#333"/>
    <path d="M -5 -20 Q 10 -10 25 -20" stroke="#333" stroke-width="2" fill="none"/> <!-- Mouth (neutral/open) -->
    
    <!-- Arm holding glass -->
    <path d="M 25 20 L 60 50" stroke="#F9C6CF" stroke-width="8" stroke-linecap="round"/>
  </g>
  
  <!-- Glass of juice -->
  <g transform="translate(220, 200)">
     <path d="M 0 0 L 10 50 L 40 50 L 50 0 Z" fill="#ADD8E6" stroke="#333" stroke-width="2"/>
     <path d="M 5 5 L 12 45 L 38 45 L 45 5 Z" fill="#FFA500"/> <!-- Juice -->
     <line x1="25" y1="0" x2="35" y2="-20" stroke="#FFF" stroke-width="3"/> <!-- Straw -->
  </g>
  
  <!-- Thought bubble with water drop -->
  <ellipse cx="300" cy="100" rx="40" ry="30" fill="white" stroke="#333"/>
  <circle cx="270" cy="140" r="5" fill="white" stroke="#333"/>
  <circle cx="260" cy="150" r="3" fill="white" stroke="#333"/>
  <path d="M 300 80 Q 290 100 300 115 Q 310 100 300 80" fill="#00BFFF" transform="translate(0, 5)"/>
  
  <text x="380" y="390" text-anchor="end" font-family="Arial, sans-serif" font-size="12" fill="#5B6470" opacity="0.85">Gemini 3 Pro</text>
</svg>