<svg xmlns="http://www.w3.org/2000/svg" viewBox="0 0 400 400" width="400" height="400">
  <rect width="400" height="400" fill="#E0F7FA"/> <!-- Icy Background -->
  
  <!-- Snowflakes -->
  <text x="50" y="80" font-size="40" fill="#AEEEEE">❄️</text>
  <text x="300" y="100" font-size="30" fill="#AEEEEE">❄️</text>
  <text x="100" y="300" font-size="30" fill="#AEEEEE">❄️</text>
  
  <!-- Peppa in winter clothes -->
  <g transform="translate(200, 220)">
    <ellipse cx="0" cy="30" rx="38" ry="42" fill="#E63946"/> <!-- Coat -->
    <rect x="-40" y="20" width="80" height="10" fill="#000080"/> <!-- Belt/Buttons -->
    
    <ellipse cx="0" cy="-30" rx="45" ry="35" fill="#F9C6CF"/> <!-- Head -->
    <ellipse cx="35" cy="-30" rx="18" ry="14" fill="#F9C6CF"/>
    <circle cx="42" cy="-33" r="4" fill="#FF69B4"/>
    <circle cx="42" cy="-27" r="4" fill="#FF69B4"/>
    <ellipse cx="-15" cy="-65" rx="10" ry="18" fill="#F9C6CF"/>
    <ellipse cx="15" cy="-65" rx="10" ry="18" fill="#F9C6CF"/>
    <circle cx="-5" cy="-35" r="3" fill="#333"/>
    <circle cx="12" cy="-35" r="3" fill="#333"/>
    
    <!-- Scarf -->
    <path d="M -30 -10 Q 0 10 30 -10 L 30 10 Q 0 30 -30 10 Z" fill="#32CD32"/>
    <rect x="15" y="0" width="15" height="40" fill="#32CD32" transform="rotate(-10)"/>
    
    <!-- Hat -->
    <path d="M -40 -50 Q 0 -90 40 -50" fill="#000080" stroke="#000080" stroke-width="15"/>
    <circle cx="0" cy="-75" r="10" fill="#FF0000"/>
    
    <!-- Shiver lines -->
    <path d="M -60 -30 L -50 -25 L -60 -20" stroke="#333" fill="none"/>
    <path d="M 60 -30 L 70 -25 L 60 -20" stroke="#333" fill="none"/>
  </g>
  
  <text x="380" y="390" text-anchor="end" font-family="Arial, sans-serif" font-size="12" fill="#5B6470" opacity="0.85">Gemini 3 Pro</text>
</svg>