<svg xmlns="http://www.w3.org/2000/svg" viewBox="0 0 400 400" width="400" height="400">
  <defs>
    <linearGradient id="sky" x1="0" y1="0" x2="0" y2="1">
      <stop offset="0" stop-color="#8FE3FF"/>
      <stop offset="1" stop-color="#D9F6FF"/>
    </linearGradient>
  </defs>

  <rect width="400" height="400" fill="url(#sky)"/>
  <path d="M 0 285 Q 200 245 400 295 L 400 400 L 0 400 Z" fill="#7BC043"/>

  <g fill="#FFFFFF" opacity="0.82">
    <g transform="translate(85 85)">
      <circle cx="0" cy="0" r="14"/>
      <circle cx="16" cy="-2" r="18"/>
      <circle cx="34" cy="0" r="14"/>
    </g>
    <g transform="translate(285 70)">
      <circle cx="0" cy="0" r="12"/>
      <circle cx="14" cy="-2" r="16"/>
      <circle cx="30" cy="0" r="12"/>
    </g>
  </g>

  <!-- Big tree (main hiding spot) -->
  <g transform="translate(300 295)">
    <rect x="-28" y="-120" width="56" height="120" rx="10" fill="#8B5A2B"/>
    <g fill="#228B22">
      <circle cx="0" cy="-150" r="62"/>
      <circle cx="-45" cy="-125" r="48"/>
      <circle cx="45" cy="-125" r="48"/>
      <circle cx="0" cy="-105" r="46"/>
    </g>
    <g fill="#5E8E2C" opacity="0.55">
      <circle cx="-30" cy="-150" r="18"/>
      <circle cx="28" cy="-138" r="16"/>
    </g>
    <g fill="#5C8C2C">
      <ellipse cx="-18" cy="10" rx="10" ry="4"/>
      <ellipse cx="5" cy="14" rx="12" ry="5"/>
      <ellipse cx="25" cy="8" rx="10" ry="4"/>
    </g>
  </g>

  <!-- Suzy Sheep peeking (right) -->
  <g transform="translate(332 232)">
    <clipPath id="suzyClip">
      <rect x="0" y="-80" width="80" height="120"/>
    </clipPath>
    <g clip-path="url(#suzyClip)">
      <ellipse cx="-10" cy="-15" rx="30" ry="28" fill="#FFFFFF" stroke="#333" stroke-width="2"/>
      <ellipse cx="12" cy="-15" rx="12" ry="10" fill="#FFFFFF" stroke="#333" stroke-width="2"/>
      <circle cx="15" cy="-18" r="2.5" fill="#FF69B4"/>
      <circle cx="15" cy="-12" r="2.5" fill="#FF69B4"/>
      <ellipse cx="-22" cy="-42" rx="8" ry="12" fill="#FFFFFF" stroke="#333" stroke-width="2"/>
      <ellipse cx="-4" cy="-42" rx="8" ry="12" fill="#FFFFFF" stroke="#333" stroke-width="2"/>
      <circle cx="-18" cy="-20" r="3" fill="#333"/>
      <path d="M -22 -6 Q -14 -1 -6 -6" stroke="#333" stroke-width="2" fill="none" stroke-linecap="round"/>
      <path d="M -6 20 Q 8 12 10 2" stroke="#F9C6CF" stroke-width="12" stroke-linecap="round" fill="none"/>
      <circle cx="10" cy="2" r="6" fill="#F9C6CF"/>
    </g>
  </g>

  <!-- Peppa counting with eyes covered (left) -->
  <g transform="translate(125 285)">
    <ellipse cx="0" cy="40" rx="44" ry="50" fill="#E63946"/>
    <rect x="-22" y="78" width="12" height="45" rx="6" fill="#F9C6CF"/>
    <rect x="10" y="78" width="12" height="45" rx="6" fill="#F9C6CF"/>
    <ellipse cx="-16" cy="128" rx="14" ry="8" fill="#333"/>
    <ellipse cx="16" cy="128" rx="14" ry="8" fill="#333"/>

    <ellipse cx="0" cy="-35" rx="52" ry="40" fill="#F9C6CF"/>
    <ellipse cx="46" cy="-35" rx="20" ry="15" fill="#F9C6CF"/>
    <circle cx="54" cy="-39" r="4" fill="#FF69B4"/>
    <circle cx="54" cy="-31" r="4" fill="#FF69B4"/>
    <ellipse cx="-17" cy="-68" rx="11" ry="19" fill="#F9C6CF"/>
    <ellipse cx="17" cy="-68" rx="11" ry="19" fill="#F9C6CF"/>

    <path d="M -38 8 Q -14 -8 -4 -20" stroke="#F9C6CF" stroke-width="18" stroke-linecap="round" fill="none"/>
    <circle cx="-4" cy="-20" r="10" fill="#F9C6CF"/>
    <path d="M 38 8 Q 14 -8 4 -20" stroke="#F9C6CF" stroke-width="18" stroke-linecap="round" fill="none"/>
    <circle cx="4" cy="-20" r="10" fill="#F9C6CF"/>

    <path d="M 6 -12 Q 14 -8 22 -12" stroke="#333" stroke-width="2" fill="none" stroke-linecap="round"/>
  </g>

  <!-- counting bubble: simple dots -->
  <g transform="translate(170 150)" opacity="0.96">
    <path d="M 0 0 C 0 -18 18 -32 42 -32 C 68 -32 88 -16 88 2 C 88 20 70 34 44 34 C 30 34 18 30 10 22 L 0 28 L 4 16 C 2 12 0 6 0 0 Z" fill="#FFFFFF" stroke="#333" stroke-width="2"/>
    <circle cx="36" cy="2" r="4" fill="#777"/>
    <circle cx="50" cy="2" r="4" fill="#777"/>
    <circle cx="64" cy="2" r="4" fill="#777"/>
  </g>

  <text x="390" y="390" text-anchor="end" font-family="Arial, sans-serif" font-size="12" fill="#5B6470" opacity="0.82">GPT-5.2</text>
</svg>
