<svg viewBox="0 0 400 400" width="400" height="400" xmlns="http://www.w3.org/2000/svg">
  <defs>
    <linearGradient id="skyGrad" x1="0%" y1="0%" x2="0%" y2="100%">
      <stop offset="0%" style="stop-color:#87CEEB;stop-opacity:1" />
      <stop offset="100%" style="stop-color:#FFF9C4;stop-opacity:1" />
    </linearGradient>
    <radialGradient id="sunGrad">
      <stop offset="0%" style="stop-color:#FFF59D;stop-opacity:1" />
      <stop offset="100%" style="stop-color:#FFEB3B;stop-opacity:1" />
    </radialGradient>
  </defs>
  
  <!-- Background -->
  <rect width="400" height="400" fill="url(#skyGrad)"/>
  
  <!-- Sun with rays -->
  <circle cx="80" cy="80" r="30" fill="url(#sunGrad)"/>
  <line x1="80" y1="35" x2="80" y2="50" stroke="#FFEB3B" stroke-width="3" stroke-linecap="round"/>
  <line x1="115" y1="52" x2="105" y2="62" stroke="#FFEB3B" stroke-width="3" stroke-linecap="round"/>
  <line x1="125" y1="80" x2="110" y2="80" stroke="#FFEB3B" stroke-width="3" stroke-linecap="round"/>
  <line x1="115" y1="108" x2="105" y2="98" stroke="#FFEB3B" stroke-width="3" stroke-linecap="round"/>
  <line x1="45" y1="52" x2="55" y2="62" stroke="#FFEB3B" stroke-width="3" stroke-linecap="round"/>
  <line x1="35" y1="80" x2="50" y2="80" stroke="#FFEB3B" stroke-width="3" stroke-linecap="round"/>
  <line x1="45" y1="108" x2="55" y2="98" stroke="#FFEB3B" stroke-width="3" stroke-linecap="round"/>
  
  <!-- Rolling hills in background -->
  <ellipse cx="100" cy="320" rx="120" ry="40" fill="#A5D6A7"/>
  <ellipse cx="300" cy="340" rx="150" ry="50" fill="#81C784"/>
  <ellipse cx="200" cy="350" rx="180" ry="60" fill="#66BB6A"/>
  
  <!-- Path (winding) -->
  <path d="M 50 350 Q 120 330 180 340 Q 250 350 320 330 L 340 325 L 345 340 L 325 355 Q 250 375 180 365 Q 120 355 50 375 Z" fill="#D7CCC8" opacity="0.8"/>
  
  <!-- Small flowers -->
  <circle cx="60" cy="340" r="4" fill="#FFEB3B"/>
  <circle cx="58" cy="337" r="2" fill="#FFF59D"/>
  <circle cx="140" cy="315" r="4" fill="#F48FB1"/>
  <circle cx="138" cy="312" r="2" fill="#FCE4EC"/>
  <circle cx="280" cy="310" r="4" fill="#FFEB3B"/>
  <circle cx="278" cy="307" r="2" fill="#FFF59D"/>
  <circle cx="350" cy="345" r="4" fill="#F48FB1"/>
  <circle cx="348" cy="342" r="2" fill="#FCE4EC"/>
  
  <!-- Flying birds -->
  <path d="M 320 100 Q 325 95 330 100" stroke="#424242" stroke-width="2" fill="none"/>
  <path d="M 330 100 Q 335 95 340 100" stroke="#424242" stroke-width="2" fill="none"/>
  
  <path d="M 290 130 Q 295 125 300 130" stroke="#424242" stroke-width="2" fill="none"/>
  <path d="M 300 130 Q 305 125 310 130" stroke="#424242" stroke-width="2" fill="none"/>
  
  <!-- Daddy Pig -->
  <!-- Legs (mid-stride) -->
  <ellipse cx="320" cy="295" rx="8" ry="18" fill="#FF8A65"/>
  <ellipse cx="340" cy="290" rx="8" ry="16" fill="#FF8A65" transform="rotate(25 340 290)"/>
  <!-- Feet -->
  <ellipse cx="320" cy="311" rx="10" ry="6" fill="#000000"/>
  <ellipse cx="345" cy="300" rx="10" ry="6" fill="#000000" transform="rotate(25 345 300)"/>
  <!-- Body -->
  <ellipse cx="330" cy="255" rx="28" ry="40" fill="#FF8A65"/>
  <!-- Head -->
  <circle cx="330" cy="215" r="32" fill="#FFAB91"/>
  <!-- Snout -->
  <ellipse cx="347" cy="220" rx="16" ry="13" fill="#FF69B4"/>
  <ellipse cx="344" cy="218" rx="4" ry="5.5" fill="#E91E63"/>
  <ellipse cx="350" cy="218" rx="4" ry="5.5" fill="#E91E63"/>
  <!-- Eyes -->
  <circle cx="320" cy="205" r="4" fill="#000000"/>
  <circle cx="321" cy="204" r="1.5" fill="#FFFFFF"/>
  <circle cx="335" cy="205" r="4" fill="#000000"/>
  <circle cx="336" cy="204" r="1.5" fill="#FFFFFF"/>
  <!-- Glasses -->
  <circle cx="320" cy="205" r="10" fill="none" stroke="#424242" stroke-width="2"/>
  <circle cx="335" cy="205" r="10" fill="none" stroke="#424242" stroke-width="2"/>
  <line x1="330" y1="205" x2="325" y2="205" stroke="#424242" stroke-width="2"/>
  <!-- Smile -->
  <path d="M 325 230 Q 330 234 335 230" stroke="#000000" stroke-width="2" fill="none"/>
  <!-- Ear -->
  <ellipse cx="305" cy="200" rx="8" ry="13" fill="#FFAB91"/>
  <!-- Arm gesturing forward -->
  <ellipse cx="358" cy="235" rx="8" ry="22" fill="#FFAB91" transform="rotate(35 358 235)"/>
  <ellipse cx="370" cy="220" rx="10" ry="8" fill="#FFAB91" transform="rotate(-10 370 220)"/>
  
  <!-- Peppa Pig (slightly ahead, mid-step) -->
  <!-- Legs (walking) -->
  <ellipse cx="180" cy="305" rx="6" ry="16" fill="#E63946"/>
  <ellipse cx="195" cy="300" rx="6" ry="14" fill="#E63946" transform="rotate(20 195 300)"/>
  <!-- Feet -->
  <ellipse cx="180" cy="319" rx="8" ry="5" fill="#000000"/>
  <ellipse cx="200" cy="308" rx="8" ry="5" fill="#000000" transform="rotate(20 200 308)"/>
  <!-- Dress body -->
  <ellipse cx="188" cy="275" rx="25" ry="30" fill="#E63946"/>
  <!-- Head -->
  <circle cx="195" cy="240" r="30" fill="#F9C6CF"/>
  <!-- Snout -->
  <ellipse cx="210" cy="245" rx="15" ry="12" fill="#FF69B4"/>
  <ellipse cx="207" cy="243" rx="3.5" ry="5" fill="#E91E63"/>
  <ellipse cx="213" cy="243" rx="3.5" ry="5" fill="#E91E63"/>
  <!-- Eyes (happy) -->
  <path d="M 182 228 Q 185 232 188 228" stroke="#000000" stroke-width="2.5" fill="none"/>
  <path d="M 197 228 Q 200 232 203 228" stroke="#000000" stroke-width="2.5" fill="none"/>
  <!-- Smile -->
  <path d="M 190 253 Q 195 257 200 253" stroke="#000000" stroke-width="2" fill="none"/>
  <!-- Ear -->
  <ellipse cx="175" cy="225" rx="8" ry="12" fill="#F9C6CF"/>
  <!-- Arms (swinging naturally) -->
  <ellipse cx="165" cy="270" rx="6" ry="18" fill="#F9C6CF" transform="rotate(-15 165 270)"/>
  <ellipse cx="213" cy="270" rx="6" ry="18" fill="#F9C6CF" transform="rotate(15 213 270)"/>
  
  <text x="390" y="390" text-anchor="end" font-family="Arial, sans-serif" font-size="12" fill="#5B6470" opacity="0.85">Claude Sonnet 4.5</text>
</svg>