<svg xmlns="http://www.w3.org/2000/svg" viewBox="0 0 400 400" width="400" height="400">
  <rect width="400" height="400" fill="#E0FFFF"/>
  <path d="M 0 300 Q 200 250 400 300 L 400 400 L 0 400 Z" fill="#7BC043"/>
  
  <!-- Path -->
  <path d="M 0 400 Q 200 350 400 380" stroke="#DEB887" stroke-width="40" fill="none"/>
  
  <!-- Sun -->
  <circle cx="50" cy="50" r="30" fill="#FFD700"/>
  
  <!-- Peppa Walking -->
  <g transform="translate(200, 280)">
    <ellipse cx="0" cy="30" rx="35" ry="40" fill="#E63946"/>
    <ellipse cx="0" cy="-30" rx="45" ry="35" fill="#F9C6CF"/>
    <ellipse cx="35" cy="-30" rx="18" ry="14" fill="#F9C6CF"/>
    <circle cx="42" cy="-33" r="4" fill="#FF69B4"/>
    <circle cx="42" cy="-27" r="4" fill="#FF69B4"/>
    <ellipse cx="-15" cy="-65" rx="10" ry="18" fill="#F9C6CF"/>
    <ellipse cx="15" cy="-65" rx="10" ry="18" fill="#F9C6CF"/>
    <circle cx="-5" cy="-35" r="3" fill="#333"/>
    <circle cx="12" cy="-35" r="3" fill="#333"/>
    
    <!-- Walking Legs -->
    <rect x="-10" y="60" width="10" height="35" fill="#F9C6CF" transform="rotate(20 0 60)"/>
    <rect x="10" y="60" width="10" height="35" fill="#F9C6CF" transform="rotate(-20 20 60)"/>
    <ellipse cx="-20" cy="95" rx="10" ry="6" fill="#000"/>
    <ellipse cx="20" cy="95" rx="10" ry="6" fill="#000"/>
  </g>
  
  <text x="380" y="390" text-anchor="end" font-family="Arial, sans-serif" font-size="12" fill="#5B6470" opacity="0.85">Gemini 3 Pro</text>
</svg>