<svg xmlns="http://www.w3.org/2000/svg" viewBox="0 0 400 400" width="400" height="400">
  <defs>
    <linearGradient id="wall" x1="0" y1="0" x2="0" y2="1">
      <stop offset="0" stop-color="#FFF0F7"/>
      <stop offset="1" stop-color="#FFE7F2"/>
    </linearGradient>
  </defs>

  <rect width="400" height="400" fill="url(#wall)"/>
  <rect x="0" y="270" width="400" height="130" fill="#F2E6D8"/>
  <line x1="0" y1="270" x2="400" y2="270" stroke="#D8C6B4" stroke-width="3"/>

  <!-- music poster -->
  <g transform="translate(40 55)">
    <rect x="0" y="0" width="92" height="112" rx="10" fill="#FFFFFF" stroke="#333" stroke-width="2"/>
    <rect x="12" y="14" width="68" height="84" rx="8" fill="#E3F2FD"/>
    <g transform="translate(52 70)">
      <ellipse cx="-10" cy="22" rx="10" ry="8" fill="#333"/>
      <rect x="-4" y="-22" width="6" height="44" fill="#333"/>
      <path d="M 2 -22 Q 20 -18 24 -4" stroke="#333" stroke-width="6" fill="none" stroke-linecap="round"/>
    </g>
  </g>

  <!-- floating notes -->
  <g opacity="0.9">
    <g transform="translate(250 70)">
      <ellipse cx="0" cy="40" rx="10" ry="8" fill="#2D6CDF"/>
      <rect x="6" y="0" width="6" height="40" fill="#2D6CDF"/>
      <path d="M 12 0 Q 32 2 34 16" stroke="#2D6CDF" stroke-width="6" fill="none" stroke-linecap="round"/>
    </g>
    <g transform="translate(310 125)">
      <ellipse cx="0" cy="34" rx="9" ry="7" fill="#E63946"/>
      <rect x="6" y="-2" width="6" height="36" fill="#E63946"/>
      <path d="M 12 -2 Q 30 0 32 12" stroke="#E63946" stroke-width="6" fill="none" stroke-linecap="round"/>
    </g>
  </g>

  <!-- Madame Gazelle with microphone (right) -->
  <g transform="translate(305 255)">
    <ellipse cx="0" cy="55" rx="40" ry="52" fill="#9C27B0"/>
    <rect x="-18" y="98" width="10" height="46" rx="5" fill="#F9C6CF"/>
    <rect x="8" y="98" width="10" height="46" rx="5" fill="#F9C6CF"/>
    <ellipse cx="-13" cy="148" rx="12" ry="7" fill="#333"/>
    <ellipse cx="13" cy="148" rx="12" ry="7" fill="#333"/>

    <ellipse cx="0" cy="-10" rx="34" ry="38" fill="#FFF8E1"/>
    <path d="M -10 -44 Q -16 -66 -6 -72" stroke="#8D6E63" stroke-width="4" fill="none" stroke-linecap="round"/>
    <path d="M 10 -44 Q 16 -66 6 -72" stroke="#8D6E63" stroke-width="4" fill="none" stroke-linecap="round"/>
    <ellipse cx="-8" cy="-18" rx="6" ry="8" fill="#FFFFFF"/>
    <ellipse cx="10" cy="-18" rx="6" ry="8" fill="#FFFFFF"/>
    <circle cx="-6" cy="-16" r="3" fill="#333"/>
    <circle cx="12" cy="-16" r="3" fill="#333"/>
    <path d="M 2 -4 Q 12 0 22 -4" stroke="#333" stroke-width="2" fill="none" stroke-linecap="round"/>

    <path d="M -30 40 Q -54 28 -48 6" stroke="#F9C6CF" stroke-width="14" stroke-linecap="round" fill="none"/>
    <circle cx="-48" cy="6" r="9" fill="#F9C6CF"/>

    <g transform="translate(22 38)">
      <rect x="-3" y="-8" width="6" height="40" rx="3" fill="#6D4C41"/>
      <ellipse cx="0" cy="-14" rx="12" ry="10" fill="#FFEB3B" stroke="#D0B200" stroke-width="2"/>
      <ellipse cx="0" cy="-14" rx="7" ry="5" fill="#FFF9C4" opacity="0.8"/>
    </g>
  </g>

  <!-- Peppa singing (center-left) -->
  <g transform="translate(165 285)">
    <ellipse cx="0" cy="55" rx="46" ry="52" fill="#E63946"/>
    <rect x="-24" y="98" width="12" height="46" rx="6" fill="#F9C6CF"/>
    <rect x="12" y="98" width="12" height="46" rx="6" fill="#F9C6CF"/>
    <ellipse cx="-18" cy="148" rx="14" ry="8" fill="#333"/>
    <ellipse cx="18" cy="148" rx="14" ry="8" fill="#333"/>

    <ellipse cx="0" cy="-12" rx="52" ry="40" fill="#F9C6CF"/>
    <ellipse cx="46" cy="-12" rx="20" ry="15" fill="#F9C6CF"/>
    <circle cx="54" cy="-16" r="4" fill="#FF69B4"/>
    <circle cx="54" cy="-8" r="4" fill="#FF69B4"/>
    <ellipse cx="-17" cy="-44" rx="11" ry="19" fill="#F9C6CF"/>
    <ellipse cx="17" cy="-44" rx="11" ry="19" fill="#F9C6CF"/>

    <ellipse cx="-10" cy="-20" rx="7" ry="9" fill="#FFFFFF"/>
    <ellipse cx="15" cy="-20" rx="7" ry="9" fill="#FFFFFF"/>
    <circle cx="-8" cy="-18" r="3.3" fill="#333"/>
    <circle cx="17" cy="-18" r="3.3" fill="#333"/>

    <ellipse cx="22" cy="2" rx="9" ry="12" fill="#333"/>

    <path d="M -38 46 Q -62 26 -52 6" stroke="#F9C6CF" stroke-width="14" stroke-linecap="round" fill="none"/>
    <circle cx="-52" cy="6" r="9" fill="#F9C6CF"/>
  </g>

  <!-- George singing behind Peppa -->
  <g transform="translate(125 315) scale(0.85)">
    <ellipse cx="0" cy="28" rx="28" ry="34" fill="#6B9BD2"/>
    <rect x="-14" y="52" width="8" height="34" rx="4" fill="#F9C6CF"/>
    <rect x="6" y="52" width="8" height="34" rx="4" fill="#F9C6CF"/>

    <ellipse cx="0" cy="-14" rx="34" ry="28" fill="#F9C6CF"/>
    <ellipse cx="26" cy="-14" rx="12" ry="10" fill="#F9C6CF"/>
    <circle cx="29" cy="-17" r="2.6" fill="#FF69B4"/>
    <circle cx="29" cy="-11" r="2.6" fill="#FF69B4"/>
    <ellipse cx="-12" cy="-40" rx="7" ry="13" fill="#F9C6CF"/>
    <ellipse cx="12" cy="-40" rx="7" ry="13" fill="#F9C6CF"/>

    <circle cx="-6" cy="-18" r="3" fill="#333"/>
    <circle cx="10" cy="-18" r="3" fill="#333"/>
    <ellipse cx="14" cy="-2" rx="7" ry="9" fill="#333"/>

    <g transform="translate(26 24)">
      <ellipse cx="0" cy="0" rx="12" ry="16" fill="#4CAF50"/>
      <ellipse cx="0" cy="-10" rx="8" ry="9" fill="#66BB6A"/>
      <path d="M -7 -16 L 0 -26 L 7 -16" fill="#2E7D32"/>
      <circle cx="-3" cy="-12" r="1.7" fill="#333"/>
      <circle cx="3" cy="-12" r="1.7" fill="#333"/>
    </g>
  </g>

  <text x="390" y="390" text-anchor="end" font-family="Arial, sans-serif" font-size="12" fill="#5B6470" opacity="0.82">GPT-5.2</text>
</svg>
