<svg viewBox="0 0 400 400" width="400" height="400" xmlns="http://www.w3.org/2000/svg">
  <defs>
    <linearGradient id="skyGrad" x1="0%" y1="0%" x2="0%" y2="100%">
      <stop offset="0%" style="stop-color:#87CEEB;stop-opacity:1" />
      <stop offset="100%" style="stop-color:#B3E5FC;stop-opacity:1" />
    </linearGradient>
    <radialGradient id="puddleGrad">
      <stop offset="0%" style="stop-color:#8D6E63;stop-opacity:1" />
      <stop offset="70%" style="stop-color:#6D4C41;stop-opacity:1" />
      <stop offset="100%" style="stop-color:#5D4037;stop-opacity:1" />
    </radialGradient>
  </defs>
  
  <!-- Background -->
  <rect width="400" height="400" fill="url(#skyGrad)"/>
  
  <!-- Yellow house in far background -->
  <rect x="300" y="120" width="70" height="60" fill="#FDD835"/>
  <path d="M 295 120 L 335 90 L 375 120 Z" fill="#E53935"/>
  <rect x="315" y="145" width="15" height="20" fill="#8D6E63"/>
  <rect x="345" y="135" width="12" height="12" fill="#4FC3F7"/>
  
  <!-- Ground -->
  <ellipse cx="200" cy="380" rx="200" ry="40" fill="#81C784"/>
  <rect x="0" y="300" width="400" height="100" fill="#A5D6A7"/>
  
  <!-- Muddy puddle -->
  <ellipse cx="230" cy="310" rx="45" ry="18" fill="url(#puddleGrad)"/>
  <!-- Water ripples -->
  <ellipse cx="230" cy="310" rx="38" ry="14" fill="none" stroke="#8D6E63" stroke-width="1.5" opacity="0.5"/>
  <ellipse cx="230" cy="310" rx="30" ry="11" fill="none" stroke="#A1887F" stroke-width="1" opacity="0.6"/>
  <!-- Shine on water -->
  <ellipse cx="220" cy="305" rx="12" ry="5" fill="#BCAAA4" opacity="0.4"/>
  
  <!-- Mummy Pig (left, extending arm) -->
  <!-- Legs -->
  <ellipse cx="90" cy="290" rx="8" ry="20" fill="#FF8A65"/>
  <ellipse cx="108" cy="290" rx="8" ry="20" fill="#FF8A65"/>
  <!-- Feet -->
  <ellipse cx="90" cy="308" rx="10" ry="6" fill="#000000"/>
  <ellipse cx="108" cy="308" rx="10" ry="6" fill="#000000"/>
  <!-- Dress body -->
  <ellipse cx="99" cy="250" rx="28" ry="40" fill="#FF8A65"/>
  <!-- Head -->
  <circle cx="99" cy="205" r="30" fill="#FFAB91"/>
  <!-- Snout -->
  <ellipse cx="114" cy="210" rx="15" ry="12" fill="#FF69B4"/>
  <ellipse cx="111" cy="208" rx="3.5" ry="5" fill="#E91E63"/>
  <ellipse cx="117" cy="208" rx="3.5" ry="5" fill="#E91E63"/>
  <!-- Eyes (caring expression) -->
  <circle cx="89" cy="195" r="4" fill="#000000"/>
  <circle cx="90" cy="194" r="1.5" fill="#FFFFFF"/>
  <circle cx="104" cy="195" r="4" fill="#000000"/>
  <circle cx="105" cy="194" r="1.5" fill="#FFFFFF"/>
  <!-- Mouth (calling out) -->
  <ellipse cx="99" cy="220" rx="5" ry="7" fill="#000000" opacity="0.8"/>
  <!-- Ear -->
  <ellipse cx="79" cy="195" rx="8" ry="13" fill="#FFAB91"/>
  <!-- Left arm down -->
  <ellipse cx="75" cy="250" rx="7" ry="20" fill="#FFAB91"/>
  <!-- Right arm extended in "wait" gesture -->
  <ellipse cx="130" cy="235" rx="8" ry="24" fill="#FFAB91" transform="rotate(35 130 235)"/>
  <ellipse cx="155" cy="230" rx="10" ry="8" fill="#FFAB91" transform="rotate(-5 155 230)"/>
  
  <!-- George (center, running toward puddle) -->
  <!-- Legs (running motion) -->
  <ellipse cx="195" cy="295" rx="5" ry="14" fill="#6B9BD2" transform="rotate(-20 195 295)"/>
  <ellipse cx="210" cy="293" rx="5" ry="13" fill="#6B9BD2" transform="rotate(30 210 293)"/>
  <!-- Wellington boots (red) -->
  <ellipse cx="192" cy="307" rx="7" ry="5" fill="#D32F2F" transform="rotate(-20 192 307)"/>
  <ellipse cx="218" cy="300" rx="7" ry="5" fill="#D32F2F" transform="rotate(30 218 300)"/>
  <!-- Shirt body -->
  <ellipse cx="203" cy="270" rx="20" ry="25" fill="#6B9BD2"/>
  <!-- Head -->
  <circle cx="203" cy="235" r="25" fill="#F9C6CF"/>
  <!-- Snout -->
  <ellipse cx="216" cy="239" rx="12" ry="10" fill="#FF69B4"/>
  <ellipse cx="213" cy="237" rx="3" ry="4" fill="#E91E63"/>
  <ellipse cx="219" cy="237" rx="3" ry="4" fill="#E91E63"/>
  <!-- Eyes (excited) -->
  <circle cx="195" cy="227" r="3.5" fill="#000000"/>
  <circle cx="196" cy="226" r="1.3" fill="#FFFFFF"/>
  <circle cx="208" cy="227" r="3.5" fill="#000000"/>
  <circle cx="209" cy="226" r="1.3" fill="#FFFFFF"/>
  <!-- Smile -->
  <path d="M 198 245 Q 203 248 208 245" stroke="#000000" stroke-width="1.8" fill="none"/>
  <!-- Ear -->
  <ellipse cx="185" cy="223" rx="7" ry="11" fill="#F9C6CF"/>
  <!-- Arms (running) -->
  <ellipse cx="185" cy="265" rx="5" ry="16" fill="#F9C6CF" transform="rotate(-30 185 265)"/>
  <ellipse cx="223" cy="265" rx="5" ry="16" fill="#F9C6CF" transform="rotate(30 223 265)"/>
  
  <!-- Peppa (right side, watching) -->
  <!-- Legs -->
  <ellipse cx="320" cy="298" rx="6" ry="15" fill="#E63946"/>
  <ellipse cx="335" cy="298" rx="6" ry="15" fill="#E63946"/>
  <!-- Wellington boots (yellow) -->
  <ellipse cx="320" cy="311" rx="8" ry="5" fill="#FDD835"/>
  <ellipse cx="335" cy="311" rx="8" ry="5" fill="#FDD835"/>
  <!-- Dress body -->
  <ellipse cx="328" cy="268" rx="23" ry="30" fill="#E63946"/>
  <!-- Head -->
  <circle cx="328" cy="233" r="28" fill="#F9C6CF"/>
  <!-- Snout -->
  <ellipse cx="343" cy="238" rx="14" ry="11" fill="#FF69B4"/>
  <ellipse cx="340" cy="236" rx="3.3" ry="4.7" fill="#E91E63"/>
  <ellipse cx="346" cy="236" rx="3.3" ry="4.7" fill="#E91E63"/>
  <!-- Eyes (watching with interest) -->
  <circle cx="318" cy="223" r="3.8" fill="#000000"/>
  <circle cx="319" cy="222" r="1.4" fill="#FFFFFF"/>
  <circle cx="333" cy="223" r="3.8" fill="#000000"/>
  <circle cx="334" cy="222" r="1.4" fill="#FFFFFF"/>
  <!-- Small smile -->
  <path d="M 323 246 Q 328 248 333 246" stroke="#000000" stroke-width="1.8" fill="none"/>
  <!-- Ear -->
  <ellipse cx="308" cy="218" rx="7" ry="11" fill="#F9C6CF"/>
  <!-- Arms -->
  <ellipse cx="305" cy="265" rx="6" ry="17" fill="#F9C6CF"/>
  <ellipse cx="351" cy="265" rx="6" ry="17" fill="#F9C6CF"/>
  
  <text x="390" y="390" text-anchor="end" font-family="Arial, sans-serif" font-size="12" fill="#5B6470" opacity="0.85">Claude Sonnet 4.5</text>
</svg>