<svg xmlns="http://www.w3.org/2000/svg" viewBox="0 0 400 400" width="400" height="400">
  <rect width="400" height="400" fill="#FFF"/>
  
  <!-- Gold Star -->
  <path transform="translate(200, 150) scale(3)" d="M 0 -20 L 5 -5 L 20 -5 L 8 5 L 12 20 L 0 10 L -12 20 L -8 5 L -20 -5 L -5 -5 Z" fill="#FFD700" stroke="#DAA520" stroke-width="1"/>
  
  <!-- Peppa -->
  <g transform="translate(200, 300)">
    <ellipse cx="0" cy="30" rx="35" ry="40" fill="#E63946"/>
    <ellipse cx="0" cy="-30" rx="45" ry="35" fill="#F9C6CF"/>
    <ellipse cx="35" cy="-30" rx="18" ry="14" fill="#F9C6CF"/>
    <circle cx="42" cy="-33" r="4" fill="#FF69B4"/>
    <circle cx="42" cy="-27" r="4" fill="#FF69B4"/>
    <ellipse cx="-15" cy="-65" rx="10" ry="18" fill="#F9C6CF"/>
    <ellipse cx="15" cy="-65" rx="10" ry="18" fill="#F9C6CF"/>
    <circle cx="-5" cy="-35" r="3" fill="#333"/>
    <circle cx="12" cy="-35" r="3" fill="#333"/>
    
    <!-- Thumbs Up -->
    <path d="M 30 10 L 50 0" stroke="#F9C6CF" stroke-width="6"/>
    <circle cx="50" cy="0" r="5" fill="#F9C6CF"/>
  </g>
  
  <text x="380" y="390" text-anchor="end" font-family="Arial, sans-serif" font-size="12" fill="#5B6470" opacity="0.85">Gemini 3 Pro</text>
</svg>