<svg xmlns="http://www.w3.org/2000/svg" viewBox="0 0 400 400" width="400" height="400">
  <defs>
    <linearGradient id="sky" x1="0" y1="0" x2="0" y2="1">
      <stop offset="0" stop-color="#86D9FF"/>
      <stop offset="1" stop-color="#D7F5FF"/>
    </linearGradient>
  </defs>

  <rect width="400" height="400" fill="url(#sky)"/>
  <path d="M 0 285 Q 210 240 400 290 L 400 400 L 0 400 Z" fill="#7BC043"/>

  <g fill="#FFFFFF" opacity="0.8">
    <g transform="translate(90 75)">
      <circle cx="0" cy="0" r="14"/>
      <circle cx="18" cy="-2" r="18"/>
      <circle cx="38" cy="0" r="14"/>
    </g>
    <g transform="translate(285 95)">
      <circle cx="0" cy="0" r="12"/>
      <circle cx="14" cy="-2" r="16"/>
      <circle cx="30" cy="0" r="12"/>
    </g>
  </g>

  <!-- Red ball (context prop) -->
  <g transform="translate(315 325)">
    <circle cx="0" cy="0" r="18" fill="#E63946"/>
    <path d="M -10 -6 Q 0 -14 10 -6" stroke="#FFFFFF" stroke-width="3" fill="none" opacity="0.7"/>
    <circle cx="-6" cy="-7" r="4" fill="#FFFFFF" opacity="0.25"/>
  </g>

  <!-- Daddy Pig clapping (left) -->
  <g transform="translate(105 260)">
    <ellipse cx="0" cy="65" rx="38" ry="45" fill="#FF8A65"/>
    <rect x="-18" y="105" width="10" height="44" rx="5" fill="#F9C6CF"/>
    <rect x="8" y="105" width="10" height="44" rx="5" fill="#F9C6CF"/>
    <ellipse cx="-13" cy="152" rx="12" ry="7" fill="#333"/>
    <ellipse cx="13" cy="152" rx="12" ry="7" fill="#333"/>

    <ellipse cx="0" cy="8" rx="40" ry="34" fill="#FFAB91"/>
    <ellipse cx="30" cy="8" rx="13" ry="11" fill="#FFAB91"/>
    <circle cx="33" cy="5" r="2.6" fill="#FF69B4"/>
    <circle cx="33" cy="11" r="2.6" fill="#FF69B4"/>

    <ellipse cx="-14" cy="-18" rx="9" ry="13" fill="#FFAB91"/>
    <ellipse cx="14" cy="-18" rx="9" ry="13" fill="#FFAB91"/>

    <g stroke="#333" stroke-width="2" fill="none" opacity="0.9">
      <circle cx="-8" cy="5" r="9"/>
      <circle cx="12" cy="5" r="9"/>
      <line x1="1" y1="5" x2="3" y2="5"/>
    </g>
    <circle cx="-8" cy="6" r="2.6" fill="#333"/>
    <circle cx="12" cy="6" r="2.6" fill="#333"/>

    <path d="M -2 20 Q 8 26 18 20" stroke="#333" stroke-width="2" fill="none" stroke-linecap="round"/>

    <path d="M -32 62 Q -18 52 -6 58" stroke="#F9C6CF" stroke-width="14" stroke-linecap="round" fill="none"/>
    <path d="M 32 62 Q 18 52 6 58" stroke="#F9C6CF" stroke-width="14" stroke-linecap="round" fill="none"/>
    <circle cx="-6" cy="58" r="8" fill="#F9C6CF"/>
    <circle cx="6" cy="58" r="8" fill="#F9C6CF"/>

    <g stroke="#333" stroke-width="2" opacity="0.5">
      <path d="M -2 45 L -10 38"/>
      <path d="M 2 45 L 10 38"/>
      <path d="M 0 42 L 0 32"/>
    </g>
  </g>

  <!-- Peppa holding big gold star (center) -->
  <g transform="translate(210 290)">
    <ellipse cx="0" cy="55" rx="50" ry="56" fill="#E63946"/>
    <rect x="-26" y="98" width="12" height="46" rx="6" fill="#F9C6CF"/>
    <rect x="14" y="98" width="12" height="46" rx="6" fill="#F9C6CF"/>
    <ellipse cx="-20" cy="148" rx="14" ry="8" fill="#333"/>
    <ellipse cx="20" cy="148" rx="14" ry="8" fill="#333"/>

    <ellipse cx="0" cy="-10" rx="56" ry="42" fill="#F9C6CF"/>
    <ellipse cx="50" cy="-10" rx="20" ry="15" fill="#F9C6CF"/>
    <circle cx="58" cy="-14" r="4" fill="#FF69B4"/>
    <circle cx="58" cy="-6" r="4" fill="#FF69B4"/>
    <ellipse cx="-18" cy="-44" rx="11" ry="19" fill="#F9C6CF"/>
    <ellipse cx="18" cy="-44" rx="11" ry="19" fill="#F9C6CF"/>

    <ellipse cx="-12" cy="-18" rx="7" ry="9" fill="#FFFFFF"/>
    <ellipse cx="15" cy="-18" rx="7" ry="9" fill="#FFFFFF"/>
    <circle cx="-10" cy="-16" r="3.2" fill="#333"/>
    <circle cx="17" cy="-16" r="3.2" fill="#333"/>

    <path d="M 2 2 Q 14 10 26 2" stroke="#333" stroke-width="3" fill="none" stroke-linecap="round"/>
    <circle cx="-22" cy="6" r="10" fill="#FFB6C1" opacity="0.55"/>
    <circle cx="30" cy="6" r="10" fill="#FFB6C1" opacity="0.55"/>

    <g transform="translate(6 46)">
      <path d="M 0 -46 L 14 -12 L 50 -12 L 22 8 L 32 42 L 0 22 L -32 42 L -22 8 L -50 -12 L -14 -12 Z" fill="#FFD54F" stroke="#DAA520" stroke-width="4"/>
      <g stroke="#FFD54F" stroke-width="3" opacity="0.9">
        <line x1="58" y1="-8" x2="72" y2="-14"/>
        <line x1="54" y1="10" x2="70" y2="10"/>
        <line x1="-58" y1="-8" x2="-72" y2="-14"/>
        <line x1="-54" y1="10" x2="-70" y2="10"/>
      </g>
    </g>

    <path d="M -42 48 Q -20 42 -10 52" stroke="#F9C6CF" stroke-width="14" stroke-linecap="round" fill="none"/>
    <path d="M 42 48 Q 20 42 10 52" stroke="#F9C6CF" stroke-width="14" stroke-linecap="round" fill="none"/>
    <circle cx="-10" cy="52" r="8" fill="#F9C6CF"/>
    <circle cx="10" cy="52" r="8" fill="#F9C6CF"/>
  </g>

  <text x="390" y="390" text-anchor="end" font-family="Arial, sans-serif" font-size="12" fill="#5B6470" opacity="0.82">GPT-5.2</text>
</svg>
