<svg xmlns="http://www.w3.org/2000/svg" viewBox="0 0 400 400" width="400" height="400">
  <rect width="400" height="400" fill="#708090"/> <!-- Dark/Grey background -->
  
  <!-- Spider web -->
  <path d="M 300 0 L 300 100" stroke="#FFF" stroke-width="1"/>
  <circle cx="300" cy="110" r="10" fill="#000"/> <!-- Spider -->
  <line x1="290" y1="110" x2="280" y2="100" stroke="#000"/>
  <line x1="310" y1="110" x2="320" y2="100" stroke="#000"/>
  
  <!-- Peppa Scared -->
  <g transform="translate(150, 250)">
    <ellipse cx="0" cy="30" rx="35" ry="40" fill="#E63946"/>
    <ellipse cx="0" cy="-30" rx="45" ry="35" fill="#F9C6CF"/>
    <ellipse cx="35" cy="-30" rx="18" ry="14" fill="#F9C6CF"/>
    <circle cx="42" cy="-33" r="4" fill="#FF69B4"/>
    <circle cx="42" cy="-27" r="4" fill="#FF69B4"/>
    <ellipse cx="-15" cy="-65" rx="10" ry="18" fill="#F9C6CF"/>
    <ellipse cx="15" cy="-65" rx="10" ry="18" fill="#F9C6CF"/>
    <circle cx="-5" cy="-35" r="3" fill="#333"/>
    <circle cx="12" cy="-35" r="3" fill="#333"/>
    
    <!-- Scared Mouth (wiggly) -->
    <path d="M 0 -15 Q 5 -10 10 -15 T 20 -15" stroke="#333" fill="none"/>
    
    <!-- Tears/Sweat -->
    <circle cx="-20" cy="-40" r="2" fill="#00BFFF"/>
  </g>
  
  <text x="380" y="390" text-anchor="end" font-family="Arial, sans-serif" font-size="12" fill="#5B6470" opacity="0.85">Gemini 3 Pro</text>
</svg>