<svg xmlns="http://www.w3.org/2000/svg" viewBox="0 0 400 400" width="400" height="400">
  <defs>
    <linearGradient id="sky" x1="0" y1="0" x2="0" y2="1">
      <stop offset="0" stop-color="#8FE3FF"/>
      <stop offset="1" stop-color="#D8F6FF"/>
    </linearGradient>
    <linearGradient id="sea" x1="0" y1="0" x2="0" y2="1">
      <stop offset="0" stop-color="#7EC8FF"/>
      <stop offset="1" stop-color="#5FAEEA"/>
    </linearGradient>
  </defs>

  <rect width="400" height="400" fill="url(#sky)"/>
  <rect x="0" y="220" width="400" height="95" fill="url(#sea)"/>
  <path d="M 0 315 Q 200 295 400 318 L 400 400 L 0 400 Z" fill="#F6D7A7"/>

  <path d="M 20 255 Q 60 240 100 255 T 180 255 T 260 255 T 340 255" stroke="#E3F2FD" stroke-width="5" fill="none" opacity="0.75" stroke-linecap="round"/>

  <!-- small umbrella far left -->
  <g transform="translate(55 295) scale(0.75)">
    <path d="M -40 -30 Q 0 -70 40 -30 L 34 -8 L -34 -8 Z" fill="#FFEB3B" stroke="#333" stroke-width="2"/>
    <path d="M -34 -24 Q 0 -58 34 -24" stroke="#2196F3" stroke-width="4" fill="none" opacity="0.9"/>
    <rect x="-3" y="-8" width="6" height="55" rx="3" fill="#8D6E63"/>
  </g>

  <!-- Peppa tasting ice cream + thumbs-up -->
  <g transform="translate(240 290)">
    <ellipse cx="0" cy="58" rx="50" ry="56" fill="#E63946"/>
    <rect x="-26" y="100" width="12" height="46" rx="6" fill="#F9C6CF"/>
    <rect x="14" y="100" width="12" height="46" rx="6" fill="#F9C6CF"/>
    <ellipse cx="-20" cy="150" rx="14" ry="8" fill="#333"/>
    <ellipse cx="20" cy="150" rx="14" ry="8" fill="#333"/>

    <ellipse cx="0" cy="-10" rx="56" ry="42" fill="#F9C6CF"/>
    <ellipse cx="50" cy="-10" rx="20" ry="15" fill="#F9C6CF"/>
    <circle cx="58" cy="-14" r="4" fill="#FF69B4"/>
    <circle cx="58" cy="-6" r="4" fill="#FF69B4"/>
    <ellipse cx="-18" cy="-44" rx="11" ry="19" fill="#F9C6CF"/>
    <ellipse cx="18" cy="-44" rx="11" ry="19" fill="#F9C6CF"/>

    <ellipse cx="-12" cy="-18" rx="7" ry="9" fill="#FFFFFF"/>
    <ellipse cx="15" cy="-18" rx="7" ry="9" fill="#FFFFFF"/>
    <circle cx="-10" cy="-16" r="3.2" fill="#333"/>
    <circle cx="17" cy="-16" r="3.2" fill="#333"/>

    <path d="M 2 2 Q 14 10 26 2" stroke="#333" stroke-width="3" fill="none" stroke-linecap="round"/>
    <circle cx="-22" cy="6" r="10" fill="#FFB6C1" opacity="0.55"/>
    <circle cx="30" cy="6" r="10" fill="#FFB6C1" opacity="0.55"/>

    <g transform="translate(70 48)">
      <path d="M -10 18 L 10 18 L 0 56 Z" fill="#D7A469" stroke="#B88447" stroke-width="2"/>
      <circle cx="0" cy="6" r="16" fill="#FF7AB6" stroke="#E85A9E" stroke-width="2"/>
      <circle cx="-4" cy="2" r="4" fill="#FFD1E5" opacity="0.8"/>
    </g>

    <path d="M 52 14 Q 60 6 70 10" stroke="#333" stroke-width="2" fill="none" stroke-linecap="round" opacity="0.9"/>

    <path d="M -48 60 Q -70 52 -64 34" stroke="#F9C6CF" stroke-width="14" stroke-linecap="round" fill="none"/>
    <circle cx="-64" cy="34" r="9" fill="#F9C6CF"/>
    <rect x="-72" y="26" width="10" height="16" rx="4" fill="#F9C6CF"/>
  </g>

  <!-- subtle sparkles -->
  <g fill="#FFFFFF" opacity="0.8">
    <path d="M 332 190 l 6 12 l 12 6 l -12 6 l -6 12 l -6 -12 l -12 -6 l 12 -6 Z"/>
    <path d="M 300 210 l 4 8 l 8 4 l -8 4 l -4 8 l -4 -8 l -8 -4 l 8 -4 Z"/>
  </g>

  <text x="390" y="390" text-anchor="end" font-family="Arial, sans-serif" font-size="12" fill="#5B6470" opacity="0.82">GPT-5.2</text>
</svg>
