<svg xmlns="http://www.w3.org/2000/svg" viewBox="0 0 400 400" width="400" height="400">
  <defs>
    <linearGradient id="sky74" x1="0%" y1="0%" x2="0%" y2="100%">
      <stop offset="0%" stop-color="#CFEFFF"/>
      <stop offset="60%" stop-color="#A8D9FF"/>
      <stop offset="100%" stop-color="#E9F7FF"/>
    </linearGradient>
    <linearGradient id="grass74" x1="0%" y1="0%" x2="0%" y2="100%">
      <stop offset="0%" stop-color="#8DE36B"/>
      <stop offset="100%" stop-color="#58B84C"/>
    </linearGradient>
    <linearGradient id="wall74" x1="0%" y1="0%" x2="0%" y2="100%">
      <stop offset="0%" stop-color="#FFFDE7"/>
      <stop offset="100%" stop-color="#FFE9A6"/>
    </linearGradient>
    <linearGradient id="door74" x1="0%" y1="0%" x2="0%" y2="100%">
      <stop offset="0%" stop-color="#66D46A"/>
      <stop offset="100%" stop-color="#2E9E46"/>
    </linearGradient>
    <filter id="shadow74" x="-20%" y="-20%" width="140%" height="140%">
      <feDropShadow dx="0" dy="3" stdDeviation="3" flood-color="#223" flood-opacity="0.25"/>
    </filter>
  </defs>

  <!-- Background -->
  <rect width="400" height="400" fill="url(#sky74)"/>
  <path d="M 0 292 C 80 262 140 312 210 286 C 280 262 330 302 400 276 L 400 400 L 0 400 Z" fill="url(#grass74)"/>

  <!-- Clouds -->
  <g opacity="0.85" fill="#FFFFFF">
    <g transform="translate(70 70)">
      <circle cx="0" cy="10" r="18"/>
      <circle cx="18" cy="0" r="22"/>
      <circle cx="38" cy="10" r="18"/>
      <circle cx="18" cy="16" r="16"/>
    </g>
    <g transform="translate(285 55) scale(0.95)">
      <circle cx="0" cy="12" r="16"/>
      <circle cx="16" cy="4" r="20"/>
      <circle cx="34" cy="12" r="16"/>
      <circle cx="16" cy="18" r="14"/>
    </g>
  </g>

  <!-- Playgroup building -->
  <g transform="translate(240 120)" filter="url(#shadow74)">
    <rect x="-95" y="10" width="190" height="135" rx="10" fill="url(#wall74)" stroke="#2B2B2B" stroke-width="3"/>
    <path d="M -110 20 L 0 -35 L 110 20 Z" fill="#E53935" stroke="#2B2B2B" stroke-width="3" stroke-linejoin="round"/>
    <rect x="-24" y="80" width="48" height="65" rx="8" fill="url(#door74)" stroke="#2B2B2B" stroke-width="3"/>
    <circle cx="10" cy="112" r="4" fill="#FFD54F" stroke="#2B2B2B" stroke-width="2"/>
    <rect x="-78" y="48" width="52" height="40" rx="6" fill="#7AD8FF" stroke="#2B2B2B" stroke-width="3"/>
    <line x1="-52" y1="48" x2="-52" y2="88" stroke="#2B2B2B" stroke-width="3"/>
    <line x1="-78" y1="68" x2="-26" y2="68" stroke="#2B2B2B" stroke-width="3"/>
  </g>

  <!-- Tiny flowers -->
  <g opacity="0.95">
    <g transform="translate(80 330)">
      <circle cx="0" cy="0" r="3" fill="#FF6B6B"/>
      <circle cx="0" cy="-6" r="3" fill="#FFD54F"/>
      <circle cx="-5" cy="-3" r="3" fill="#FFD54F"/>
      <circle cx="5" cy="-3" r="3" fill="#FFD54F"/>
      <circle cx="0" cy="-3" r="2.2" fill="#FFF9C4"/>
    </g>
    <g transform="translate(318 338)">
      <circle cx="0" cy="0" r="3" fill="#4FC3F7"/>
      <circle cx="0" cy="-6" r="3" fill="#FFD54F"/>
      <circle cx="-5" cy="-3" r="3" fill="#FFD54F"/>
      <circle cx="5" cy="-3" r="3" fill="#FFD54F"/>
      <circle cx="0" cy="-3" r="2.2" fill="#FFF9C4"/>
    </g>
  </g>

  <!-- Characters -->
  <g stroke="#2B2B2B" stroke-width="3" stroke-linecap="round" stroke-linejoin="round" filter="url(#shadow74)">
    <!-- Peppa waving -->
    <g transform="translate(130 285)">
      <ellipse cx="0" cy="58" rx="50" ry="58" fill="#E63946"/>
      <rect x="-26" y="105" width="13" height="52" rx="6.5" fill="#F9C6CF"/>
      <rect x="13" y="105" width="13" height="52" rx="6.5" fill="#F9C6CF"/>
      <ellipse cx="-20" cy="165" rx="16" ry="8.5" fill="#2B2B2B" stroke="none"/>
      <ellipse cx="20" cy="165" rx="16" ry="8.5" fill="#2B2B2B" stroke="none"/>

      <path d="M -46 55 Q -78 35 -98 15" fill="none" stroke="#F9C6CF" stroke-width="18"/>
      <circle cx="-100" cy="13" r="10.5" fill="#F9C6CF" stroke="none"/>
      <path d="M 45 58 Q 70 78 80 98" fill="none" stroke="#F9C6CF" stroke-width="18"/>
      <circle cx="82" cy="102" r="10.5" fill="#F9C6CF" stroke="none"/>

      <ellipse cx="0" cy="-8" rx="60" ry="50" fill="#F9C6CF"/>
      <ellipse cx="50" cy="-8" rx="25" ry="18" fill="#F9C6CF"/>
      <circle cx="57" cy="-13" r="4.2" fill="#FF69B4" stroke="none"/>
      <circle cx="57" cy="-3" r="4.2" fill="#FF69B4" stroke="none"/>

      <ellipse cx="-18" cy="-54" rx="12" ry="22" fill="#F9C6CF"/>
      <ellipse cx="18" cy="-54" rx="12" ry="22" fill="#F9C6CF"/>

      <circle cx="-16" cy="-22" r="6.5" fill="#FFFFFF" stroke="none"/>
      <circle cx="8" cy="-22" r="6.5" fill="#FFFFFF" stroke="none"/>
      <circle cx="-16" cy="-22" r="3.2" fill="#2B2B2B" stroke="none"/>
      <circle cx="8" cy="-22" r="3.2" fill="#2B2B2B" stroke="none"/>

      <path d="M -10 -2 Q 0 10 10 -2" fill="none"/>
      <circle cx="-28" cy="-8" r="8.5" fill="#FF69B4" opacity="0.35" stroke="none"/>
      <circle cx="15" cy="-8" r="8.5" fill="#FF69B4" opacity="0.35" stroke="none"/>
    </g>

    <!-- Suzy Sheep -->
    <g transform="translate(275 300)">
      <ellipse cx="0" cy="48" rx="46" ry="54" fill="#FFFFFF"/>
      <rect x="-22" y="92" width="11" height="46" rx="5.5" fill="#F9C6CF"/>
      <rect x="11" y="92" width="11" height="46" rx="5.5" fill="#F9C6CF"/>
      <ellipse cx="-16" cy="145" rx="13" ry="7.2" fill="#2B2B2B" stroke="none"/>
      <ellipse cx="16" cy="145" rx="13" ry="7.2" fill="#2B2B2B" stroke="none"/>

      <path d="M -40 45 Q -62 25 -75 10" fill="none" stroke="#F9C6CF" stroke-width="16"/>
      <circle cx="-76" cy="9" r="9.5" fill="#F9C6CF" stroke="none"/>
      <path d="M 40 45 Q 60 62 70 78" fill="none" stroke="#F9C6CF" stroke-width="16"/>
      <circle cx="72" cy="82" r="9.5" fill="#F9C6CF" stroke="none"/>

      <circle cx="0" cy="-12" r="48" fill="#FFFFFF"/>
      <circle cx="-20" cy="-30" r="10" fill="#FFFFFF" opacity="0.85" stroke="none"/>
      <circle cx="0" cy="-40" r="10" fill="#FFFFFF" opacity="0.85" stroke="none"/>
      <circle cx="20" cy="-30" r="10" fill="#FFFFFF" opacity="0.85" stroke="none"/>

      <circle cx="-14" cy="-25" r="6.5" fill="#FFFFFF" stroke="none"/>
      <circle cx="8" cy="-25" r="6.5" fill="#FFFFFF" stroke="none"/>
      <circle cx="-14" cy="-25" r="3.2" fill="#2B2B2B" stroke="none"/>
      <circle cx="8" cy="-25" r="3.2" fill="#2B2B2B" stroke="none"/>
      <path d="M -10 -2 Q 0 8 10 -2" fill="none"/>
    </g>

    <!-- Danny Dog -->
    <g transform="translate(345 295)">
      <ellipse cx="0" cy="52" rx="44" ry="52" fill="#FFB74D"/>
      <rect x="-20" y="94" width="10.5" height="46" rx="5.25" fill="#F9C6CF"/>
      <rect x="9.5" y="94" width="10.5" height="46" rx="5.25" fill="#F9C6CF"/>
      <ellipse cx="-14" cy="146" rx="13" ry="7.2" fill="#2B2B2B" stroke="none"/>
      <ellipse cx="14" cy="146" rx="13" ry="7.2" fill="#2B2B2B" stroke="none"/>

      <path d="M -36 50 Q -55 33 -65 20" fill="none" stroke="#F9C6CF" stroke-width="16"/>
      <circle cx="-66" cy="19" r="9.5" fill="#F9C6CF" stroke="none"/>
      <path d="M 36 50 Q 56 67 64 82" fill="none" stroke="#F9C6CF" stroke-width="16"/>
      <circle cx="66" cy="86" r="9.5" fill="#F9C6CF" stroke="none"/>

      <circle cx="0" cy="-10" r="46" fill="#FFB74D"/>
      <ellipse cx="36" cy="-6" rx="16" ry="12" fill="#FFB74D"/>
      <circle cx="43" cy="-8" r="3.2" fill="#2B2B2B" stroke="none"/>

      <ellipse cx="-22" cy="-42" rx="10" ry="18" fill="#FFB74D" transform="rotate(-18 -22 -42)"/>
      <ellipse cx="8" cy="-45" rx="10" ry="18" fill="#FFB74D" transform="rotate(18 8 -45)"/>

      <circle cx="-12" cy="-25" r="6.5" fill="#FFFFFF" stroke="none"/>
      <circle cx="7" cy="-25" r="6.5" fill="#FFFFFF" stroke="none"/>
      <circle cx="-12" cy="-25" r="3.2" fill="#2B2B2B" stroke="none"/>
      <circle cx="7" cy="-25" r="3.2" fill="#2B2B2B" stroke="none"/>
      <path d="M -8 -2 Q 0 8 8 -2" fill="none"/>
    </g>
  </g>

  <!-- Signature -->
  <text x="390" y="390" text-anchor="end" font-family="Arial, sans-serif" font-size="12" fill="#5B6470" opacity="0.85">GPT 5.2</text>
</svg>

