<svg xmlns="http://www.w3.org/2000/svg" viewBox="0 0 400 400" width="400" height="400">
  <rect width="400" height="400" fill="#E3F2FD"/>
  <ellipse cx="200" cy="380" rx="220" ry="60" fill="#7BC043"/>
    <g transform="translate(150, 280)">
    <ellipse cx="0" cy="30" rx="35" ry="40" fill="#E63946"/>
    <rect x="-20" y="60" width="10" height="35" rx="5" fill="#F9C6CF"/>
    <rect x="10" y="60" width="10" height="35" rx="5" fill="#F9C6CF"/>
    <ellipse cx="0" cy="-30" rx="45" ry="35" fill="#F9C6CF"/>
    <ellipse cx="35" cy="-30" rx="18" ry="14" fill="#F9C6CF"/>
    <circle cx="42" cy="-33" r="4" fill="#FF69B4"/>
    <circle cx="42" cy="-27" r="4" fill="#FF69B4"/>
    <ellipse cx="-15" cy="-65" rx="10" ry="18" fill="#F9C6CF"/>
    <ellipse cx="15" cy="-65" rx="10" ry="18" fill="#F9C6CF"/>
    <ellipse cx="-5" cy="-35" rx="6" ry="8" fill="white"/>
    <ellipse cx="12" cy="-35" rx="6" ry="8" fill="white"/>
    <circle cx="-4" cy="-34" r="3" fill="#333"/>
    <circle cx="13" cy="-34" r="3" fill="#333"/>
    <path d="M -5 -18 Q 10 -8 25 -18" stroke="#333" stroke-width="3" fill="none"/>
  </g>
    <g transform="translate(250, 280)">
    <ellipse cx="0" cy="25" rx="28" ry="32" fill="#4A90E2"/>
    <rect x="-15" y="50" width="8" height="28" rx="4" fill="#F9C6CF"/>
    <rect x="7" y="50" width="8" height="28" rx="4" fill="#F9C6CF"/>
    <ellipse cx="0" cy="-25" rx="35" ry="28" fill="#F9C6CF"/>
    <ellipse cx="28" cy="-25" rx="14" ry="11" fill="#F9C6CF"/>
    <circle cx="33" cy="-27" r="3" fill="#FF69B4"/>
    <circle cx="33" cy="-23" r="3" fill="#FF69B4"/>
    <ellipse cx="-12" cy="-50" rx="8" ry="14" fill="#F9C6CF"/>
    <ellipse cx="12" cy="-50" rx="8" ry="14" fill="#F9C6CF"/>
    <ellipse cx="-4" cy="-28" rx="5" ry="6" fill="white"/>
    <ellipse cx="10" cy="-28" rx="5" ry="6" fill="white"/>
    <circle cx="-3" cy="-27" r="2.5" fill="#333"/>
    <circle cx="11" cy="-27" r="2.5" fill="#333"/>
    <path d="M -4 -15 Q 8 -8 20 -15" stroke="#333" stroke-width="2.5" fill="none"/>
  </g>
  <ellipse cx="100" cy="280" rx="30" ry="35" fill="#E0E0E0"/>
  <ellipse cx="100" cy="270" rx="25" ry="30" fill="#FFF"/>
  <ellipse cx="95" cy="265" rx="4" ry="5" fill="#333"/>
  <ellipse cx="105" cy="265" rx="4" ry="5" fill="#333"/>
  <path d="M 90 275 Q 100 280 110 275" stroke="#333" stroke-width="2" fill="none"/>
  <text x="390" y="390" text-anchor="end" font-family="Arial, sans-serif" font-size="10" fill="#5B6470" opacity="0.7">composer 1</text>
</svg>