<svg xmlns="http://www.w3.org/2000/svg" viewBox="0 0 100 100">
  
  
  <defs>
    <filter id="shadowBlur">
      <feGaussianBlur in="SourceGraphic" stdDeviation="0.8" />
    </filter>
  </defs>
<line x1="0" y1="95" x2="80" y2="95" stroke="#2B2B2B" stroke-width="1" opacity="0.35"  filter="url(#shadowBlur)"/>
<!-- Daddy Pig Frame 15: Standing, 310° rotation, adjusting glasses -->
  <g transform="rotate(310 50 75)">
    
    <!-- Legs (knees slightly bent, relaxed stance) -->
    <rect x="40" y="76" width="9" height="19" rx="4" fill="#FFAB91"/>
    <rect x="52" y="76" width="9" height="19" rx="4" fill="#FFAB91"/>
    
    <!-- Feet (on ground) -->
    <ellipse cx="44.5" cy="95" rx="7" ry="4" fill="#FF8A65"/>
    <ellipse cx="56.5" cy="95" rx="7" ry="4" fill="#1A1A1A"/>
    
    <!-- Body -->
    <ellipse cx="50" cy="61" rx="27" ry="35" fill="#FF8A65"/>
    
    <!-- Shirt -->
    <ellipse cx="50" cy="46" rx="25" ry="18" fill="#4DB8AC"/>
    
    <!-- Left arm (hanging at side) -->
    <rect x="37" y="48" width="7" height="20" rx="3" fill="#FFAB91"/>
    <circle cx="40.5" cy="68" r="5" fill="#FFAB91"/>
    
    <!-- Right arm (at face, adjusting glasses) -->
    <rect x="58" y="35" width="7" height="16" rx="3" fill="#FFAB91" transform="rotate(40 61.5 43)"/>
    <circle cx="64" cy="32" r="5" fill="#FFAB91"/>
    
    <!-- Tail -->
    <path d="M 25 63 Q 20 63 18 60 Q 16 57 18 53" fill="none" stroke="#FFAB91" stroke-width="3" stroke-linecap="round"/>
    
    <!-- Head (facing forward, eyes looking down at hand) -->
    <ellipse cx="55" cy="30" rx="20" ry="22" fill="#FFAB91" transform="rotate(320 55 30)"/>
    
    <!-- Ear -->
    <ellipse cx="50" cy="24" rx="8" ry="9" fill="#FFAB91"/>
    
    <!-- Snout (side profile) -->
    <ellipse cx="68" cy="32" rx="13" ry="10" fill="#FFAB91" transform="rotate(320 68 32)"/>
    
    <!-- Nostrils -->
    <circle cx="73" cy="30" r="2" fill="#FF69B4"/>
    <circle cx="73" cy="34" r="2" fill="#FF69B4"/>
    
    <!-- Glasses (being straightened, less crooked) -->
    <circle cx="57" cy="28" r="10" fill="none" stroke="#1A1A1A" stroke-width="1.5" transform="rotate(10 57 28)"/>
    <line x1="67" y1="28" x2="56" y2="28" stroke="#1A1A1A" stroke-width="1.5"/>
    <line x1="47" y1="28" x2="41" y2="28" stroke="#1A1A1A" stroke-width="1.5"/>
    
    <!-- Eyes (looking down, concentrating on glasses) -->
    <circle cx="57" cy="28" r="5" fill="#FFFFFF"/>
    <circle cx="57" cy="30" r="2.5" fill="#1A1A1A"/>
    
    <!-- Mouth (concentrating, neutral) -->
    <path d="M 68 38 Q 70 39 72 38" fill="none" stroke="#1A1A1A" stroke-width="1"/>
    
  </g>
</svg>
