<svg xmlns="http://www.w3.org/2000/svg" viewBox="0 0 100 100">
  
  <defs>
    <filter id="shadowBlur">
      <feGaussianBlur in="SourceGraphic" stdDeviation="0.8" />
    </filter>
  </defs>
<!-- GEORGE FRAME 20: Straight, transitioning on ground -->
  <rect width="100" height="100" fill="none"/>
  <line x1="0" y1="95" x2="80" y2="95" stroke="#333" stroke-width="1" filter="url(#shadowBlur)"/>

  <g id="dino" transform="translate(42,42)">
    <ellipse cx="0" cy="6" rx="7" ry="4" fill="#4CAF50"/>
    <circle cx="7" cy="4" r="2.5" fill="#4CAF50"/>
  </g>

  <g id="george">
    <circle cx="30" cy="28" r="15" fill="#F9C6CF"/>
    <ellipse cx="41" cy="30" rx="8" ry="6" fill="#FF69B4"/>
    <circle cx="26" cy="26" r="4" fill="#fff"/>
    <circle cx="26" cy="26" r="2" fill="#000"/>
    <ellipse cx="30" cy="60" rx="12" ry="16" fill="#6B9BD2"/>

    <rect x="12" y="50" width="5" height="16" rx="2" fill="#F9C6CF"/>
    <rect x="34" y="50" width="5" height="16" rx="2" fill="#F9C6CF"/>

    <rect x="22" y="70" width="5" height="20" rx="2" fill="#F9C6CF"/>
    <rect x="34" y="70" width="5" height="20" rx="2" fill="#F9C6CF"/>

    <ellipse cx="24" cy="92" rx="5" ry="3" fill="#1A1A1A"/>
    <ellipse cx="36" cy="92" rx="5" ry="3" fill="#1A1A1A"/>
  </g>
</svg>
