<svg xmlns="http://www.w3.org/2000/svg" viewBox="0 0 100 100">
  <!-- Frame 13: 234° - Left Profile Emerging -->
  
  <!-- Ground line -->
  <line x1="0" y1="95" x2="100" y2="95" stroke="#8B7355" stroke-width="0.5" opacity="0.3"/>
  
  <!-- Left Leg (on ground) -->
  <rect x="45" y="70" width="8" height="25" rx="4" fill="#FFAB91"/>
  
  <!-- Right Leg (lifting) -->
  <rect x="48" y="69" width="8" height="25" rx="4" fill="#FFAB91"/>
  
  <!-- Left Foot -->
  <ellipse cx="49" cy="95" rx="5" ry="4" fill="#1A1A1A"/>
  
  <!-- Right Foot (lifting) -->
  <ellipse cx="52" cy="94" rx="5" ry="4" fill="#1A1A1A"/>
  
  <!-- Body (relaxed) -->
  <ellipse cx="50" cy="55" rx="28" ry="38" fill="#FF8A65"/>
  
  <!-- Skirt flowing outward -->
  <path d="M 22 70 Q 22 75 20 80.5 L 30 80.5 Q 28 75 28 70 Z" fill="#FF8A65"/>
  <path d="M 72 70 Q 72 75 74 80.5 L 80 80.5 Q 78 75 78 70 Z" fill="#FF8A65"/>
  <path d="M 28 70 L 30 80.5 L 70 80.5 L 72 70 Z" fill="#FF8A65"/>
  
  <!-- Carousel lines -->
  <path d="M 20 80.5 Q 17 78.5 15 76.5" stroke="#CCCCCC" stroke-width="0.5" fill="none" opacity="0.6"/>
  <path d="M 21 81 Q 18 79 16 77" stroke="#CCCCCC" stroke-width="0.5" fill="none" opacity="0.5"/>
  <path d="M 22 81.5 Q 19 79.5 17 77.5" stroke="#CCCCCC" stroke-width="0.5" fill="none" opacity="0.4"/>
  <path d="M 80 80.5 Q 83 78.5 85 76.5" stroke="#CCCCCC" stroke-width="0.5" fill="none" opacity="0.6"/>
  <path d="M 79 81 Q 82 79 84 77" stroke="#CCCCCC" stroke-width="0.5" fill="none" opacity="0.5"/>
  
  <!-- Left Arm -->
  <rect x="35" y="50" width="7" height="20" rx="3.5" fill="#FFAB91" transform="rotate(75 38.5 60)"/>
  
  <!-- Right Arm -->
  <rect x="58" y="50" width="7" height="20" rx="3.5" fill="#FFAB91" transform="rotate(285 61.5 60)"/>
  
  <!-- Left Hand -->
  <circle cx="36" cy="69" r="4.5" fill="#FFAB91"/>
  
  <!-- Right Hand -->
  <circle cx="64" cy="69" r="4.5" fill="#FFAB91"/>
  
  <!-- Head - Left Profile Emerging (234°) -->
  <circle cx="50" cy="30" r="20" fill="#FFAB91"/>
  
  <!-- Left Ear ONLY (profile) -->
  <circle cx="36" cy="15" r="8" fill="#FFAB91"/>
  
  <!-- Snout - Left Profile -->
  <ellipse cx="33" cy="30" rx="10" ry="8" fill="#FF69B4"/>
  <circle cx="35" cy="30" r="1.5" fill="#1A1A1A"/>
  
  <!-- Left Eye ONLY (profile) -->
  <circle cx="41" cy="28" r="4" fill="white"/>
  <circle cx="40" cy="28" r="2" fill="#1A1A1A"/>
  
  <!-- Mouth (profile) -->
  <path d="M 44 36 Q 46 37 48 36" stroke="#D84A4A" stroke-width="1" fill="none"/>
</svg>
