<svg xmlns="http://www.w3.org/2000/svg" viewBox="0 0 100 100">
  <!-- Frame 11: 198° - Back Quarter Left -->
  
  <!-- Ground line -->
  <line x1="0" y1="95" x2="100" y2="95" stroke="#8B7355" stroke-width="0.5" opacity="0.3"/>
  
  <!-- Right Leg (on ground) -->
  <rect x="50" y="70" width="8" height="25" rx="4" fill="#FFAB91"/>
  
  <!-- Left Leg (lifting) -->
  <rect x="44" y="67" width="8" height="25" rx="4" fill="#FFAB91"/>
  
  <!-- Right Foot -->
  <ellipse cx="54" cy="95" rx="5" ry="4" fill="#1A1A1A"/>
  
  <!-- Left Foot (lifting) -->
  <ellipse cx="48" cy="92" rx="5" ry="4" fill="#1A1A1A"/>
  
  <!-- Body (beginning to relax, staying low) -->
  <ellipse cx="50" cy="56" rx="27" ry="37" fill="#FF8A65"/>
  
  <!-- Skirt continuing flow -->
  <path d="M 20 70 Q 20 75 18 81.5 L 28 81.5 Q 26 75 26 70 Z" fill="#FF8A65"/>
  <path d="M 74 70 Q 74 75 76 81.5 L 82 81.5 Q 80 75 80 70 Z" fill="#FF8A65"/>
  <path d="M 26 70 L 28 81.5 L 72 81.5 L 74 70 Z" fill="#FF8A65"/>
  
  <!-- Carousel lines -->
  <path d="M 18 81.5 Q 15 79.5 13 77.5" stroke="#CCCCCC" stroke-width="0.5" fill="none" opacity="0.7"/>
  <path d="M 19 82 Q 16 80 14 78" stroke="#CCCCCC" stroke-width="0.5" fill="none" opacity="0.6"/>
  <path d="M 20 82.5 Q 17 80.5 15 78.5" stroke="#CCCCCC" stroke-width="0.5" fill="none" opacity="0.5"/>
  <path d="M 82 81.5 Q 85 79.5 87 77.5" stroke="#CCCCCC" stroke-width="0.5" fill="none" opacity="0.7"/>
  <path d="M 81 82 Q 84 80 86 78" stroke="#CCCCCC" stroke-width="0.5" fill="none" opacity="0.6"/>
  <path d="M 80 82.5 Q 83 80.5 85 78.5" stroke="#CCCCCC" stroke-width="0.5" fill="none" opacity="0.5"/>
  
  <!-- Left Arm -->
  <rect x="30" y="52" width="7" height="20" rx="3.5" fill="#FFAB91" transform="rotate(105 33.5 62)"/>
  
  <!-- Right Arm -->
  <rect x="63" y="52" width="7" height="20" rx="3.5" fill="#FFAB91" transform="rotate(255 66.5 62)"/>
  
  <!-- Left Hand -->
  <circle cx="28" cy="72" r="4.5" fill="#FFAB91"/>
  
  <!-- Right Hand -->
  <circle cx="72" cy="72" r="4.5" fill="#FFAB91"/>
  
  <!-- Head - Back Quarter Left (198°) - NO FACIAL FEATURES YET (staying low) -->
  <circle cx="50" cy="32" r="20" fill="#FFAB91"/>
  
  <!-- Left ear visible (back/side angle, low) -->
  <circle cx="38" cy="19" r="8" fill="#FFAB91"/>
  
  <!-- Back of right ear (low) -->
  <circle cx="60" cy="20" r="8" fill="#FFAB91" opacity="0.5"/>
  
  <!-- NO snout visible yet -->
  <!-- NO eyes visible yet -->
  <!-- NO mouth visible yet -->
</svg>
