<svg xmlns="http://www.w3.org/2000/svg" viewBox="0 0 100 100">
  <!-- Frame 9: 144° - Back View Approaching -->
  
  <!-- Ground line -->
  <line x1="0" y1="95" x2="100" y2="95" stroke="#8B7355" stroke-width="0.5" opacity="0.3"/>
  
  <!-- Left Leg (on ground) -->
  <rect x="43" y="70" width="8" height="25" rx="4" fill="#FFAB91"/>
  
  <!-- Right Leg (lifting) -->
  <rect x="51" y="65" width="8" height="25" rx="4" fill="#FFAB91"/>
  
  <!-- Left Foot -->
  <ellipse cx="47" cy="95" rx="5" ry="4" fill="#1A1A1A"/>
  
  <!-- Right Foot (lifting) -->
  <ellipse cx="55" cy="90" rx="5" ry="4" fill="#1A1A1A"/>
  
  <!-- Body (slimming, staying low) -->
  <ellipse cx="50" cy="56" rx="26" ry="36" fill="#FF8A65"/>
  
  <!-- Skirt (back view, maximum extension) -->
  <path d="M 20 70 Q 20 75 18 82 L 28 82 Q 26 75 26 70 Z" fill="#FF8A65"/>
  <path d="M 74 70 Q 74 75 76 82 L 82 82 Q 80 75 80 70 Z" fill="#FF8A65"/>
  <path d="M 26 70 L 28 82 L 72 82 L 74 70 Z" fill="#FF8A65"/>
  
  <!-- Carousel lines (maximum on both sides) -->
  <path d="M 18 82 Q 15 80 13 78" stroke="#CCCCCC" stroke-width="0.5" fill="none" opacity="0.8"/>
  <path d="M 19 82.5 Q 16 80.5 14 78.5" stroke="#CCCCCC" stroke-width="0.5" fill="none" opacity="0.7"/>
  <path d="M 20 83 Q 17 81 15 79" stroke="#CCCCCC" stroke-width="0.5" fill="none" opacity="0.6"/>
  <path d="M 21 83.5 Q 18 81.5 16 79.5" stroke="#CCCCCC" stroke-width="0.5" fill="none" opacity="0.5"/>
  <path d="M 82 82 Q 85 80 87 78" stroke="#CCCCCC" stroke-width="0.5" fill="none" opacity="0.8"/>
  <path d="M 81 82.5 Q 84 80.5 86 78.5" stroke="#CCCCCC" stroke-width="0.5" fill="none" opacity="0.7"/>
  <path d="M 80 83 Q 83 81 85 79" stroke="#CCCCCC" stroke-width="0.5" fill="none" opacity="0.6"/>
  <path d="M 79 83.5 Q 82 81.5 84 79.5" stroke="#CCCCCC" stroke-width="0.5" fill="none" opacity="0.5"/>
  
  <!-- Left Arm (back view) -->
  <rect x="25" y="51" width="7" height="20" rx="3.5" fill="#FFAB91" transform="rotate(135 28.5 61)"/>
  
  <!-- Right Arm (back view) -->
  <rect x="68" y="51" width="7" height="20" rx="3.5" fill="#FFAB91" transform="rotate(225 71.5 61)"/>
  
  <!-- Left Hand -->
  <circle cx="22" cy="70" r="4.5" fill="#FFAB91"/>
  
  <!-- Right Hand -->
  <circle cx="78" cy="70" r="4.5" fill="#FFAB91"/>
  
  <!-- Head - Back View (144°) - NO FACIAL FEATURES (staying low) -->
  <circle cx="50" cy="32" r="20" fill="#FFAB91"/>
  
  <!-- Back of left ear (low) -->
  <circle cx="40" cy="20" r="8" fill="#FFAB91"/>
  
  <!-- Back of right ear (low) -->
  <circle cx="60" cy="20" r="8" fill="#FFAB91"/>
  
  <!-- NO snout visible -->
  <!-- NO eyes visible -->
  <!-- NO mouth visible -->
</svg>
